<?xml version="1.0" encoding="utf-8"?>
<!-- Generator: Adobe Illustrator 25.2.3, SVG Export Plug-In . SVG Version: 6.00 Build 0)  -->
<svg version="1.1" id="Layer_1" xmlns="http://www.w3.org/2000/svg" xmlns:xlink="http://www.w3.org/1999/xlink" x="0px" y="0px"
	 viewBox="0 0 96.3 64" style="enable-background:new 0 0 96.3 64;" xml:space="preserve">
<g id="XMLID_2_">
	<g id="Group_295">
		<path id="Path_144" d="M95.8,52h-4.2c-0.1-0.5-0.3-1-0.6-1.5c-0.6-0.5-1.5-0.8-2.3-0.7c-0.8-0.1-1.5,0.1-2.2,0.5
			c-0.3,0.3-0.5,0.7-0.5,1.1c0,0.6,0.9,1.1,2.6,1.5c1.5,0.3,2.9,0.7,4.3,1.1c0.2,0.1,0.4,0.1,0.6,0.2c1.6,0.6,2.7,2.1,2.6,3.8
			c0.1,1.9-0.9,3.7-2.6,4.6L93,63.1c-1.2,0.5-2.5,0.8-3.9,0.7c-1.8,0.1-3.7-0.3-5.3-1.2c-0.8-0.4-1.4-1.1-1.9-1.9
			c-0.4-0.8-0.7-1.7-0.6-2.6h4.4c0,0.7,0.3,1.3,0.8,1.8c0.8,0.5,1.8,0.7,2.7,0.6c0.8,0.1,1.5-0.2,2.2-0.6c0.3-0.3,0.5-0.7,0.5-1.1
			c0-0.7-0.9-1.2-2.6-1.6c-1.7-0.3-3.3-0.7-4.9-1.3c-1.6-0.6-2.7-2.2-2.6-3.9c0-1.3,0.5-2.6,1.4-3.6c1.4-1.3,3.3-2,5.2-1.8
			c1.6-0.1,3.1,0.2,4.6,0.8c0.1,0,0.2,0.1,0.3,0.1c0.8,0.4,1.4,1,1.9,1.8C95.6,50.2,95.8,51.1,95.8,52z"/>
		<path id="Path_145" d="M93.5,41.7c0-0.1,0-0.1-0.1-0.2c0-0.1-0.1-0.1-0.2-0.1c-0.1,0-0.2,0-0.3-0.1h-0.7v0.8H93
			c0.1,0,0.3,0,0.4-0.1C93.5,42,93.5,41.9,93.5,41.7z M93.9,41.3c0.1,0.1,0.1,0.2,0.1,0.4c0,0.2-0.1,0.4-0.2,0.5
			c-0.1,0.2-0.4,0.2-0.6,0.2c0.1,0,0.2,0.1,0.2,0.1l0.4,0.5l0.3,0.5h-0.5l-0.2-0.4c-0.1-0.2-0.2-0.4-0.4-0.6L93,42.6l-0.4-0.1h-0.3
			v1.2h-0.4v-2.7h0.9c0.1,0,0.1,0,0.2,0c0.2,0,0.4,0,0.5,0.1C93.7,41.1,93.8,41.2,93.9,41.3L93.9,41.3z"/>
		<path id="Path_146" d="M95.1,42.3c0-0.4-0.1-0.7-0.3-1.1c-0.2-0.3-0.5-0.6-0.8-0.8c-0.3-0.2-0.7-0.3-1-0.3h0c-0.4,0-0.7,0.1-1,0.3
			c-0.3,0.2-0.6,0.5-0.8,0.8c-0.2,0.3-0.3,0.7-0.3,1.1c0,0.4,0.1,0.7,0.3,1.1c0.2,0.3,0.4,0.6,0.8,0.8c0.3,0.2,0.7,0.3,1.1,0.3h0
			c0.4,0,0.7-0.1,1.1-0.3c0.3-0.2,0.6-0.4,0.8-0.8C95,43,95.1,42.7,95.1,42.3z M95.5,42.3c0,0.4-0.1,0.9-0.3,1.2
			c-0.2,0.4-0.5,0.7-0.9,0.9c-0.4,0.2-0.8,0.3-1.2,0.3h0c-0.4,0-0.9-0.1-1.2-0.3c-0.4-0.2-0.7-0.5-0.9-0.9c-0.2-0.4-0.3-0.8-0.3-1.2
			c0-0.4,0.1-0.9,0.3-1.3c0.2-0.4,0.6-0.7,0.9-0.9c0.4-0.2,0.8-0.3,1.2-0.3h0c0.4,0,0.9,0.1,1.2,0.3c0.4,0.2,0.7,0.5,0.9,0.9
			C95.4,41.4,95.5,41.9,95.5,42.3L95.5,42.3z"/>
		<path id="Path_147" d="M70.9,21.8l11.9,19.8H63.7L52.4,22.7L43.8,8.4l8.6-5.2L57.8,0L70.9,21.8z"/>
		<path id="Path_148" d="M79.5,55.4v8.1h-3.9v-0.9c-1.4,0.9-3,1.4-4.6,1.4h-0.1c-4.7,0-8.6-3.9-8.6-8.6c0-4.7,3.8-8.6,8.6-8.6H71
			c1.6,0,3.2,0.5,4.6,1.4v-0.9h3.9L79.5,55.4z M75.6,56.3v-1.8c-0.4-2.2-2.4-3.8-4.6-3.8h-0.1c-2.6,0-4.7,2.1-4.7,4.7
			s2.1,4.7,4.7,4.7H71C73.2,60.1,75.1,58.5,75.6,56.3L75.6,56.3z"/>
		<path id="Path_149" d="M61,55.4v8.1H57v-0.9c-1.4,0.9-3,1.4-4.6,1.4h-0.1c-4.7,0-8.6-3.9-8.6-8.6c0-4.7,3.8-8.6,8.6-8.6h0.1
			c1.6,0,3.2,0.5,4.6,1.4v-6.5H61V55.4z M57,56.3v-1.8c-0.4-2.2-2.4-3.8-4.6-3.8h-0.1c-2.6,0-4.7,2.1-4.7,4.7s2.1,4.7,4.7,4.7l0,0
			h0.1C54.7,60.1,56.6,58.5,57,56.3L57,56.3z"/>
		<path id="Path_150" d="M52.4,33.9l4.7,7.8H38L27.4,24l-0.5-0.8l0.5-0.3l13.6-8.2L52.4,33.9z"/>
		<rect id="Rectangle_27" x="38" y="46.8" width="4.3" height="16.7"/>
		<rect id="Rectangle_28" x="38" y="41.7" width="4.3" height="3.8"/>
		<path id="Path_151" d="M36,55.4v8.1h-4v-0.9c-1.4,0.9-3,1.4-4.7,1.4h-0.1c-4.7,0-8.6-3.9-8.6-8.6c0-4.7,3.8-8.6,8.6-8.6h0.1
			c1.7,0,3.3,0.5,4.7,1.4v-6.5H36V55.4z M32,56.3v-1.8c-0.4-2.2-2.4-3.8-4.7-3.8h-0.1c-2.6,0-4.7,2.1-4.7,4.7s2.1,4.7,4.7,4.7h0.1
			C29.6,60.1,31.6,58.5,32,56.3L32,56.3z"/>
		<path id="Path_152" d="M27.4,35.2l3.9,6.5H12.2L10,38.1l14-8.4L27.4,35.2z"/>
		<path id="Path_153" d="M17.2,55.4v8.1h-3.9v-0.9c-1.4,0.9-3,1.4-4.7,1.4H8.6C3.8,64,0,60.1,0,55.4s3.9-8.6,8.6-8.6h0.1
			c1.7,0,3.3,0.5,4.7,1.4v-0.9h3.9L17.2,55.4L17.2,55.4z M13.3,56.3v-1.8c-0.4-2.2-2.4-3.8-4.7-3.8H8.6c-2.6,0-4.7,2.1-4.7,4.7
			s2.1,4.7,4.7,4.7h0.1C10.9,60.1,12.9,58.5,13.3,56.3L13.3,56.3z"/>
	</g>
</g>
</svg>
