<?xml version="1.0" encoding="utf-8"?>
<!-- Generator: Adobe Illustrator 25.2.3, SVG Export Plug-In . SVG Version: 6.00 Build 0)  -->
<svg version="1.1" id="Layer_1" xmlns="http://www.w3.org/2000/svg" xmlns:xlink="http://www.w3.org/1999/xlink" x="0px" y="0px"
	 viewBox="0 0 163 52.8" style="enable-background:new 0 0 163 52.8;" xml:space="preserve">
<style type="text/css">
	.st0{fill-rule:evenodd;clip-rule:evenodd;fill:#FF9900;}
	.st1{fill-rule:evenodd;clip-rule:evenodd;}
</style>
<path id="path8" class="st0" d="M102.5,39.9c-9.3,6.8-22.7,10.5-34.2,10.5c-15.4,0.1-30.3-5.6-41.8-16c-0.9-0.8-0.1-1.9,0.9-1.2
	c12.7,7.3,27.2,11.1,41.8,11.1c11-0.1,21.8-2.3,31.9-6.5C102.8,37.1,104.1,38.8,102.5,39.9"/>
<path id="path10" class="st0" d="M106.4,35.5c-1.2-1.5-7.8-0.7-10.8-0.4c-0.9,0.1-1-0.7-0.2-1.2c5.3-3.7,14-2.6,15-1.4
	c1,1.2-0.3,10-5.2,14.1c-0.8,0.6-1.5,0.3-1.2-0.5C105.1,43.3,107.6,37,106.4,35.5"/>
<path id="path12" class="st1" d="M95.8,7.6V4c0-0.5,0.4-0.9,0.9-0.9c0,0,0,0,0,0h16.2c0.5,0,0.9,0.4,0.9,0.9c0,0,0,0,0,0.1v3.1
	c-0.2,0.9-0.6,1.6-1.2,2.3l-8.4,12c3.2-0.2,6.4,0.5,9.2,2c0.5,0.3,0.8,0.8,0.9,1.4v3.9c0,0.5-0.6,1.1-1.2,0.8
	c-5.4-2.8-11.8-2.8-17.1,0c-0.6,0.3-1.2-0.3-1.2-0.8V25c-0.1-0.9,0.2-1.7,0.6-2.5l9.7-13.9h-8.5C96.2,8.6,95.8,8.2,95.8,7.6
	C95.8,7.7,95.8,7.6,95.8,7.6"/>
<path id="path14" class="st1" d="M36.7,30.2h-4.9c-0.5,0-0.8-0.4-0.9-0.8V4.1c0-0.5,0.4-0.9,0.9-0.9c0,0,0,0,0,0h4.6
	c0.5,0,0.9,0.4,0.9,0.8v3.3h0.1c1.2-3.2,3.5-4.7,6.5-4.7c3.1,0,5,1.5,6.4,4.7c1.4-3.8,5.6-5.6,9.4-4.2c1.2,0.5,2.3,1.3,3.1,2.3
	c1.6,2.1,1.2,5.2,1.2,7.9l0,16c0,0.5-0.4,0.9-0.9,0.9c0,0,0,0,0,0h-4.9c-0.5,0-0.9-0.4-0.9-0.9V15.9c0.1-1.6,0-3.2-0.1-4.7
	c-0.2-1.4-1.5-2.4-2.9-2.2c-1.3,0-2.5,0.9-2.9,2.1c-0.4,1.6-0.6,3.2-0.5,4.8v13.4c0,0.5-0.4,0.9-0.9,0.9c0,0,0,0,0,0H45
	c-0.5,0-0.9-0.4-0.9-0.9l0-13.4c0-2.8,0.5-7-3-7c-3.5,0-3.4,4-3.4,7v13.4C37.6,29.8,37.2,30.2,36.7,30.2
	C36.7,30.2,36.7,30.2,36.7,30.2"/>
<path id="path16" class="st1" d="M127.8,2.6c7.3,0,11.3,6.3,11.3,14.3c0,7.7-4.4,13.8-11.3,13.8c-7.2,0-11.1-6.3-11.1-14.1
	C116.7,8.7,120.7,2.6,127.8,2.6 M127.8,7.8c-3.6,0-3.9,4.9-3.9,8s0,9.7,3.8,9.7c3.8,0,4-5.3,4-8.6c0.1-2.3-0.2-4.5-0.7-6.7
	C130.7,8.7,129.4,7.7,127.8,7.8"/>
<path id="path18" class="st1" d="M148.6,30.2h-4.9c-0.5,0-0.9-0.4-0.9-0.9l0-25.3c0.1-0.5,0.5-0.8,1-0.8h4.6c0.4,0,0.8,0.3,0.9,0.7
	v3.9h0.1c1.4-3.5,3.3-5.1,6.7-5.1c2.3-0.1,4.5,1,5.8,3c1.3,2,1.3,5.4,1.3,7.9v15.9c-0.1,0.5-0.5,0.8-1,0.8h-4.9
	c-0.4,0-0.8-0.4-0.9-0.8V15.7c0-2.8,0.3-6.8-3.1-6.8c-1.3,0.1-2.4,0.8-2.8,2c-0.6,1.5-0.9,3.2-0.8,4.8v13.6
	C149.5,29.8,149.1,30.2,148.6,30.2"/>
<path id="path28" class="st1" d="M82.9,18.1c0,1.9,0,3.5-0.9,5.2c-0.6,1.3-2,2.2-3.4,2.2c-1.9,0-3-1.4-3-3.6c0-4.2,3.8-5,7.3-5
	L82.9,18.1 M87.8,30.1c-0.3,0.3-0.8,0.3-1.2,0.1c-1.1-0.9-2.1-2-2.8-3.3c-2.7,2.8-4.6,3.6-8.1,3.6c-4.2,0-7.4-2.6-7.4-7.7
	c-0.1-3.5,2-6.7,5.3-8.1c2.7-1.2,6.4-1.4,9.3-1.7v-0.6c0.2-1.2-0.1-2.5-0.6-3.6c-0.7-0.9-1.7-1.3-2.8-1.3c-1.9-0.1-3.6,1.1-4,3
	c-0.1,0.5-0.4,0.8-0.9,0.9L69.9,11c-0.5-0.1-0.8-0.5-0.7-1c0,0,0,0,0-0.1c1.1-5.8,6.3-7.5,11-7.5c2.4,0,5.5,0.6,7.4,2.5
	c2.4,2.2,2.2,5.2,2.2,8.5V21c0,2.3,1,3.3,1.9,4.6c0.4,0.4,0.3,1,0,1.3C90.6,27.7,88.8,29.3,87.8,30.1L87.8,30.1"/>
<path id="path30" class="st1" d="M18.2,18.1c0,1.9,0,3.5-0.9,5.2c-0.6,1.3-2,2.2-3.4,2.2c-1.9,0-3-1.4-3-3.6c0-4.2,3.8-5,7.3-5
	L18.2,18.1 M23.2,30.1c-0.3,0.3-0.8,0.3-1.2,0.1c-1.1-0.9-2.1-2-2.8-3.3c-2.7,2.8-4.6,3.6-8.1,3.6c-4.1,0-7.4-2.6-7.4-7.7
	c-0.1-3.5,2-6.7,5.3-8.1c2.7-1.2,6.4-1.4,9.3-1.7v-0.6c0.2-1.2-0.1-2.5-0.6-3.6C17,8,16,7.6,14.9,7.6c-1.9-0.1-3.6,1.1-4,3
	c-0.1,0.5-0.4,0.8-0.9,0.9L5.3,11c-0.5-0.1-0.8-0.5-0.7-1c0,0,0,0,0,0c1.1-5.8,6.3-7.5,11-7.5C18,2.4,21.1,3,23,4.8
	c2.4,2.2,2.2,5.2,2.2,8.5V21c0,2.3,1,3.3,1.9,4.6c0.4,0.4,0.4,1,0,1.3c0,0,0,0,0,0C26,27.7,24.2,29.3,23.2,30.1L23.2,30.1"/>
</svg>
