<?xml version="1.0" encoding="utf-8"?>
<!-- Generator: Adobe Illustrator 25.2.3, SVG Export Plug-In . SVG Version: 6.00 Build 0)  -->
<svg version="1.1" id="Layer_1" xmlns="http://www.w3.org/2000/svg" xmlns:xlink="http://www.w3.org/1999/xlink" x="0px" y="0px"
	 viewBox="0 0 195.1 52.8" style="enable-background:new 0 0 195.1 52.8;" xml:space="preserve">
<style type="text/css">
	.st0{fill-rule:evenodd;clip-rule:evenodd;fill:#DC0D28;}
	.st1{fill-rule:evenodd;clip-rule:evenodd;fill:#003A86;}
</style>
<g id="Group_13611" transform="translate(-6288)">
	<path id="Path_403" class="st0" d="M6296.8,24.4l0.1,25.4l-8-0.2c0,0-0.1-21.8,0-22.1c-0.4-4.1,1.7-10.2,1.9-10.3
		c7.1-14.3,23.1-12,23.2-12C6297.4,9.3,6296.8,24.4,6296.8,24.4L6296.8,24.4z"/>
	<path id="Path_404" class="st1" d="M6431.3,6.9c-0.2-0.6-0.8-1-1.4-0.9V5.6c1.7,0,3.2-0.7,4.4-1.9c0.2,0,0.4,0,0.6,0
		c-0.3,1-0.4,2.1-0.4,3.1c0,0,0,9.1,0,9.1h38.9v-2.6h-12.5V7.9l9.7-4.1l0.5,0.8l-7.2,4.9V10h12.6v9h-45.2L6431.3,6.9L6431.3,6.9z
		 M6433.6,30.9c0,1.1-0.9,1.9-1.9,1.9c0,0,0,0-0.1,0c-1,0-1.9-0.8-1.9-1.8c0-0.4,0.1-0.7,0.3-1c-0.4-0.3-0.9-0.4-1.4-0.4
		c-0.7-0.1-1.3,0.2-1.7,0.8c-0.3,0.6-0.5,1.3-0.4,2v2.2h3.8l0,0.1c0.1,0.2,0.2,0.5,0.2,0.7c0,0.7-0.6,1.4-1.3,1.4
		c-0.3,0-0.6,0-0.8,0c-0.6,0-1.2,0-1.7,0v7.6c0,1.1,0.2,1.6,0.6,1.9c0.5,0.2,1,0.4,1.5,0.4l0.1,0l0,0.1c0.1,0.2,0.1,0.4,0.2,0.6
		c0,0.5-0.5,0.9-1.1,1c-1,0.2-2,0.3-3,0.3c-1,0-1.9,0-2.8-0.2c-0.6-0.2-1.1-0.5-1.1-1c0-0.2,0.1-0.4,0.2-0.6l0-0.1l0.1,0
		c0.4-0.1,0.7-0.2,1-0.4c0.4-0.3,0.5-0.7,0.5-1.9v-7.6l-2.2-0.1l0-0.1c-0.1-0.2-0.2-0.5-0.2-0.7c0-0.7,0.6-1.3,1.3-1.2
		c0,0,0,0,0.1,0h1v-0.8c-0.1-1.4,0.2-2.8,1-4c1.1-1.4,2.8-2.2,4.6-2.1C6431.2,27.7,6433.6,28.9,6433.6,30.9L6433.6,30.9z M6422.2,24
		c0,0-1.8,0-1.8,0c-1.9-0.2-3.5-1.4-4.3-3.1c3.2,2.1,5.4,0.5,5.5,0.6c1.5-0.8,2.4-2.5,2.1-4.2c-0.7-2.9-2.9-2.6-2.9-2.6v-0.4
		c1.8-0.4,3.4-1.6,4.2-3.3c0,0.4,0.1,0.8,0.2,1.1c0.9,1.4,1.6,2.9,2,4.4v2.2c-0.1,1.1-0.5,2.1-1.2,3
		C6425,22.9,6423.7,23.7,6422.2,24L6422.2,24z M6373.5,19h-2.3c-0.3,2.5-2.3,4.5-4.8,4.9h-2c-2.4-0.5-4.3-2.4-4.7-4.9
		c0.2,0,0.4,0,0.6,0c0.4,1.5,1.6,2.6,3.1,2.8h1.3c1.5-0.1,2.8-1.3,3-2.8c0,0-5.9,0-5.9,0v-2.2c0,0-0.1-4.1,2.7-5.7
		c1.3-0.8,2.7-1.3,4.2-1.5c0,0,1.4,1.2,2.1,4.3c0,0,0.3,1.4,0.3,1.9h0.1c1.3,0,29.9-0.1,39.5-0.1c0-0.3,0-0.7,0-1c0,0-3.1,0-3.2,0
		c-1.1-0.1-2.1-0.7-2.7-1.6c-0.7-0.9-0.8-2.1-0.3-3.1c0.6-1.9,3.2-3.3,5.2-4c1.4-0.4,2.9-0.7,4.4-0.6L6414,19L6373.5,19z
		 M6367.2,13.1c-1.3,0.3-2.2,1.5-2.3,2.8h3C6367.7,13.3,6367.2,13.1,6367.2,13.1L6367.2,13.1z M6410.4,8.5c0,0-2.7,0.4-2.9,1.8
		c-0.2,0.5,0.1,1.1,0.6,1.3c0.1,0,0.1,0,0.2,0c0,0,2.3,0,2.3,0L6410.4,8.5z M6406,5.1c-0.9,0-1.7-0.8-1.7-1.7s0.8-1.7,1.7-1.7
		s1.7,0.8,1.7,1.7v0C6407.7,4.4,6406.9,5.1,6406,5.1z M6353.3,24c0,0-1.8,0-1.8,0c-1.9-0.2-3.5-1.4-4.3-3.1c3.2,2.1,5.4,0.5,5.5,0.6
		c1.5-0.8,2.4-2.5,2.1-4.2c-0.7-2.9-2.9-2.6-2.9-2.6v-0.4c1.8-0.4,3.4-1.6,4.2-3.3c0,0.4,0.1,0.8,0.2,1.1c0.9,1.4,1.6,2.9,2,4.4v2.2
		c-0.1,1.1-0.5,2.1-1.2,3C6356.1,22.9,6354.8,23.7,6353.3,24L6353.3,24z M6356,28.7c4.6,0,7.8,3,7.8,5.6c0.1,1.3-0.9,2.4-2.1,2.5
		c0,0,0,0-0.1,0c-0.6,0-1.2-0.2-1.6-0.6c-0.5-0.4-0.7-1-0.7-1.6c0-0.6,0.3-1.2,0.8-1.7c-0.8-1.2-2.2-1.9-3.7-1.8
		c-1.6,0-3,0.8-3.9,2.1c-1.1,1.7-1.6,3.6-1.5,5.6c-0.1,2,0.5,3.9,1.6,5.6c0.9,1.3,2.4,2.1,3.9,2.1c1.4,0.1,2.8-0.6,3.7-1.8
		c-0.5-0.4-0.8-1-0.8-1.6c0-0.6,0.2-1.2,0.7-1.6c0.5-0.4,1-0.6,1.6-0.6c1.3,0,2.2,1.1,2.2,2.4c0,0,0,0.1,0,0.1
		c0,2.6-3.2,5.6-7.8,5.6c-2.5,0-5-0.9-6.8-2.7c-2-2-3.1-4.6-3-7.4c0-2.7,1-5.4,2.9-7.4C6351,29.7,6353.4,28.7,6356,28.7L6356,28.7z
		 M6329.7,24.3c-0.3-7.6-7.5-10.6-7.5-10.8c-9.3-4.3-13.5,1.2-13.5,1.2c3.9-1.5,8.2-1,11.6,1.3c5.1,2.9,5.4,9.5,5.4,9.5v24h-7.6
		c0-2.2-0.1-23.7-0.1-24.1c0-1.2-0.7-2.2-1.7-2.8l-3,3.6c0,0-3.1-3.7-3.1-3.6c-1.4,0.7-1.7,3.6-1.7,3.6l-0.1,23.2h-7.5
		c0-0.4,0-0.9,0-1.3l0.2-25c0.1-10.3,8.3-17.9,18.1-17.3c9.8,0.6,18,9.3,18.1,19.5l0.3,24.2h-7.7L6329.7,24.3L6329.7,24.3z
		 M6367.6,41.1c1.3-0.8,2.9-1.2,4.4-1.2c1,0,2.1,0.2,3,0.5v-1.6c0-1.6-0.7-2.5-2.5-2.5c-0.6,0-1.2,0.1-1.8,0.3
		c0.1,0.2,0.1,0.4,0.1,0.7c0,1-0.8,1.9-1.8,1.9c-0.1,0-0.1,0-0.2,0c-1,0-1.9-0.8-1.9-1.8c0,0,0,0,0,0c0-1.9,2.5-3.2,5.8-3.2
		c2.6,0,4.3,0.6,5.1,1.6c0.8,0.9,0.8,2.3,0.8,4.3v5.1c0,1,0.6,1.3,1.9,1.4l0.1,0l0,0.1c-0.1,1.2-1.1,2-2.3,2c-0.1,0-0.2,0-0.3,0
		c-1.1,0-2.2-0.6-2.7-1.6c-1.2,1-2.8,1.5-4.3,1.6c-3,0-5.3-1.9-5.4-4.6C6365.9,43,6366.5,41.8,6367.6,41.1L6367.6,41.1z
		 M6372.4,46.3c1,0,2-0.5,2.6-1.3v-2c0-0.4-0.3-0.7-0.6-0.8c-0.6-0.3-1.2-0.4-1.8-0.4c-1.6,0-2.7,0.7-2.8,2.2c0,1.3,1,2.3,2.3,2.3
		C6372.3,46.4,6372.4,46.3,6372.4,46.3L6372.4,46.3z M6384.3,34.5c0.3-0.1,0.7-0.2,1-0.2c1.1,0,2,0.8,2.2,1.9c0.7-1.2,2-2,3.4-2.1
		c1.2-0.1,2.3,0.8,2.4,2c0,0,0,0.1,0,0.1c0,1.1-0.9,2-2,2c0,0,0,0,0,0c-0.9,0-1.7-0.6-1.9-1.4c-0.7,0.2-1.7,1-1.7,3.9v3.5
		c0,1.2,0.2,1.6,0.6,1.9c0.4,0.2,0.9,0.4,1.3,0.4l0.1,0l0,0.1c0.1,0.2,0.2,0.4,0.2,0.7c0,0.5-0.4,0.8-1,1c-0.9,0.2-1.8,0.3-2.7,0.2
		c-0.9,0-1.9,0-2.8-0.2c-0.6-0.2-1.1-0.5-1-1c0-0.2,0.1-0.4,0.2-0.6l0-0.1l0.1,0c0.4-0.1,0.7-0.2,1-0.4c0.4-0.3,0.5-0.7,0.5-1.9
		v-5.8c0-1-0.3-1.3-1.1-1.3c-0.2,0-0.5,0-0.7,0.1l-0.1,0l0-0.1c-0.1-0.2-0.1-0.4-0.1-0.6C6382,35.4,6383.3,34.8,6384.3,34.5
		L6384.3,34.5z M6396.7,34.5c0.3-0.1,0.7-0.2,1-0.2c1.1,0,2,0.8,2.2,1.9c0.7-1.2,2-2,3.4-2.1c1.2-0.1,2.3,0.8,2.4,2c0,0,0,0.1,0,0.1
		c0,1.1-0.9,2-2,2c0,0,0,0,0,0c-0.9,0-1.7-0.6-1.9-1.4c-0.7,0.2-1.7,1-1.7,3.9v3.5c0,1.2,0.2,1.6,0.6,1.9c0.4,0.2,0.9,0.4,1.3,0.4
		l0.1,0l0,0.1c0.1,0.2,0.2,0.4,0.2,0.7c0,0.5-0.4,0.8-1,1c-0.9,0.2-1.8,0.3-2.7,0.2c-0.9,0-1.9,0-2.8-0.2c-0.6-0.2-1.1-0.5-1.1-1
		c0-0.2,0.1-0.4,0.2-0.6l0-0.1l0.1,0c0.4-0.1,0.7-0.2,1-0.4c0.4-0.3,0.5-0.7,0.5-1.9v-5.8c0-1-0.3-1.3-1.1-1.3c-0.2,0-0.5,0-0.7,0.1
		l-0.1,0l-0.1-0.1c-0.1-0.2-0.1-0.4-0.1-0.6C6394.4,35.4,6395.8,34.8,6396.7,34.5L6396.7,34.5z M6413.4,34.2
		c1.7-0.1,3.4,0.6,4.6,1.7c0.9,1,1.5,2.2,1.5,3.6c0,0.7-0.2,1.4-0.5,2l0,0.1h-9.3c0.2,2.5,1.9,4.3,4.9,4.3c1.4,0,2.7-0.5,3.7-1.5
		l0.1-0.1l0.1,0.1c0.4,0.3,0.6,0.7,0.5,1.1c0,1.5-1.8,3.3-5.9,3.3c-4,0.1-7.3-3-7.4-7c0,0,0-0.1,0-0.1c-0.1-2,0.7-4,2.1-5.4
		C6409.3,34.9,6411.3,34.2,6413.4,34.2L6413.4,34.2z M6415.2,39.6c0.3,0,0.4-0.1,0.4-0.2c0.1-0.2,0.1-0.3,0.1-0.5
		c-0.1-1.5-1.3-2.6-2.8-2.6c0,0,0,0,0,0c-2.1,0-3,1.6-3.1,3.2H6415.2z M6438.7,34.2c2-0.1,4,0.7,5.5,2c2.9,2.9,2.9,7.6,0,10.5
		c0,0,0,0,0,0c-1.5,1.4-3.5,2.1-5.5,2l0,0c-2,0-3.9-0.7-5.4-2c-1.5-1.4-2.3-3.3-2.2-5.3C6431,37.2,6434.6,34.2,6438.7,34.2
		L6438.7,34.2z M6438.7,46.6c2,0,3.4-1.6,3.4-4.9c0.1-1.4-0.3-2.8-1-3.9c-0.6-0.9-1.5-1.4-2.6-1.4c-2.1,0-3.4,1.8-3.4,4.7
		C6435.2,44.9,6437,46.6,6438.7,46.6L6438.7,46.6z M6449.7,34.5c0.3-0.1,0.7-0.1,1-0.1c0.7-0.1,1.3,0.2,1.8,0.7
		c0.4,0.5,0.6,1.1,0.5,1.7l0,4.4c-0.1,1.2,0.1,2.5,0.5,3.6c0.4,0.8,1.2,1.3,2.1,1.2c0.9,0.1,1.8-0.4,2.3-1.2
		c0.4-0.8,0.7-1.7,0.6-2.6v-3.6c0-1-0.4-1.4-1.4-1.4c-0.1,0-0.3,0-0.4,0l-0.1,0l0-0.1c-0.1-0.2-0.1-0.4-0.1-0.6
		c0-1.2,1.7-1.9,2.7-2.1c0.3-0.1,0.7-0.1,1-0.1c0.7-0.1,1.3,0.2,1.8,0.7c0.4,0.5,0.6,1.1,0.5,1.7c0,0.5-0.1,1.4-0.1,5.2
		c0,1.6,0,2.4,0,2.7c0,1.1,0.4,1.6,1.5,1.6c0.1,0,0.2,0,0.4,0l0.1,0l0,0.1c0.1,0.2,0.1,0.4,0.1,0.5c0,1.2-1.7,1.7-2.7,1.9
		c-0.3,0.1-0.6,0.1-0.9,0.1h0c-0.6,0-1.2-0.2-1.6-0.7c-0.3-0.4-0.5-0.8-0.5-1.3c-0.2,0.2-0.3,0.3-0.6,0.6c-1,0.9-2.4,1.4-3.8,1.4
		c-1.4,0.1-2.8-0.5-3.8-1.5c-1.3-1.5-1.3-3.4-1.3-6v-2.6c0-1-0.4-1.4-1.4-1.4c-0.1,0-0.3,0-0.4,0l-0.1,0l0-0.1
		c-0.1-0.2-0.1-0.4-0.1-0.6C6447,35.4,6448.7,34.7,6449.7,34.5L6449.7,34.5z M6467.9,34.5c0.3-0.1,0.7-0.2,1-0.2
		c1.1,0,2,0.8,2.2,1.9c0.7-1.2,2-2,3.4-2.1c1.2-0.1,2.3,0.8,2.4,2c0,0,0,0.1,0,0.1c0,1.1-0.9,2-2,2c0,0,0,0,0,0
		c-0.9,0-1.7-0.5-1.9-1.4c-0.7,0.2-1.7,1-1.7,3.9v3.5c0,1.2,0.2,1.6,0.5,1.9c0.4,0.2,0.9,0.4,1.4,0.4l0.1,0l0,0.1
		c0.1,0.2,0.2,0.4,0.2,0.7c0,0.5-0.4,0.8-1,0.9c-0.9,0.2-1.8,0.3-2.7,0.2c-0.9,0-1.9,0-2.8-0.2c-0.6-0.2-1.1-0.5-1.1-1
		c0-0.2,0.1-0.4,0.2-0.6l0-0.1l0.1,0c0.4-0.1,0.7-0.2,1-0.4c0.4-0.3,0.5-0.7,0.5-1.9v-5.8c0-1-0.3-1.3-1.1-1.3c-0.2,0-0.5,0-0.7,0.1
		l-0.1,0l-0.1-0.1c-0.1-0.2-0.1-0.4-0.1-0.6C6465.6,35.4,6467,34.8,6467.9,34.5L6467.9,34.5z"/>
</g>
</svg>
