<?xml version="1.0" encoding="utf-8"?>
<!-- Generator: Adobe Illustrator 19.2.1, SVG Export Plug-In . SVG Version: 6.00 Build 0)  -->
<svg version="1.1" id="layer" xmlns="http://www.w3.org/2000/svg" xmlns:xlink="http://www.w3.org/1999/xlink" x="0px" y="0px"
	 viewBox="20 180 610 290"  xml:space="preserve">
<g id="Page-1">
	<g id="Desktop-Mega-Menu-Copy" transform="translate(-666.000000, -40.000000)">
		<g id="Group-6" transform="translate(666.000000, 40.000000)">
			<polygon id="Rectangle-path" points="357.4,204.9 357.4,186 376.6,186.1 376.6,204.9 			"/>
			<path id="Shape" d="M192.3,354.3L146,463.1l18.8,0.1l10.8-26.1l49.4,0.1l10.6,26.1l19.4,0.1l-45.8-109L192.3,354.3z M182.5,420.2
				l18.1-43.2l18,43.3L182.5,420.2z"/>
			<polygon id="Rectangle-path_1_" points="605.9,205.5 606,186.6 625.2,186.7 625.1,205.5 			"/>
			<polygon id="Rectangle-path_2_" points="314,204.7 314.1,185.8 333.3,185.9 333.3,204.7 			"/>
			<polygon id="Rectangle-path_3_" points="45.3,322.7 45.3,303.9 64.5,303.9 64.5,322.8 			"/>
			<polygon id="Rectangle-path_4_" points="270.8,204.5 270.8,185.7 290,185.8 290,204.6 			"/>
			<polygon id="Shape_1_" points="44.5,385.7 102.9,463.3 118.4,463.4 118.7,354.5 100.4,354.5 100.2,429.7 43.5,354.3 26.3,354.3 
				26,463.1 44.3,463.2 			"/>
			<polygon id="Rectangle-path_5_" points="82.4,322.8 82.4,304 101.7,304 101.6,322.9 			"/>
			<polygon id="Shape_2_" points="374.9,463.4 375.1,354.6 355.4,354.5 323.3,405.9 291.4,354.3 271.7,354.3 271.5,463.1 
				289.6,463.2 289.8,385.4 322.6,436.5 323.2,436.5 356.6,385.3 356.3,463.4 			"/>
			<polygon id="Rectangle-path_6_" points="605.2,460.8 605.5,353.6 624.7,353.6 624.4,460.8 			"/>
			<polygon id="Shape_3_" points="569.3,399.7 519.2,399.6 519.3,354.3 500.8,354.3 500.5,463.1 519.1,463.2 519.2,417.3 
				569.2,417.5 569.1,463.3 587.5,463.4 587.8,354.5 569.4,354.5 			"/>
			<path id="Shape_4_" d="M538.4,294.8l68.4,0.2l19,0.1l0.2-80.7l-19-0.1l-0.2,61.5l-68.3-0.2c-4.3-22-23.5-38.7-46.6-38.8
				c-23-0.1-42.2,16.5-46.7,38.3l-68.2-0.2l0.2-61.3l-19-0.1l-0.2,61.3h-24.4l0.2-61.3l-19-0.1l-0.2,61.3l-24.6-0.1l0.2-61.4
				l-19-0.1l-0.2,61.4l-65.1-0.2l0.2-61.3l-25.1-0.1c-23-0.1-41.7,18.6-41.8,41.5L139,274l-93.9-0.3v-0.2
				c0.1-23.1,18.8-41.8,41.8-41.8l14.5,0.1l0.1-19.2l-14.5-0.1c-33.5-0.1-60.9,27.3-61,61L26,292.8l132,0.4l0.1-38.9
				c0-12.3,10.2-22.3,22.7-22.3h6l-0.2,61.3l258.4,0.6c4.4,21.9,23.5,38.5,46.5,38.6C514.6,333,533.8,316.6,538.4,294.8z
				 M491.8,313.7c-15.7,0-28.5-13-28.5-28.9c0-15.9,12.9-28.8,28.6-28.8c15.7,0,28.5,13,28.5,28.9
				C520.3,300.8,507.5,313.7,491.8,313.7z"/>
			<path id="Shape_5_" d="M439.3,400.4c-20.2-4.9-25-8.6-25-16.9c0-7.1,6.4-12.7,17.3-12.7c9.6,0,19.1,3.8,28.6,10.9l10-14.1
				c-10.7-8.7-22.9-13.4-38.3-13.4c-21-0.1-36.1,12.3-36.1,30.8c-0.1,19.7,12.6,26.4,35,31.9c19.6,4.6,23.8,8.7,23.8,16.5
				c0,8.2-7.3,13.5-18.7,13.4c-13.1,0-23.3-5-33.4-13.9l-11.2,13.3c12.7,11.4,27.9,17,44,17c22.2,0.1,37.8-11.7,37.8-31.7
				C473.3,413.9,461.6,405.9,439.3,400.4z"/>
		</g>
	</g>
</g>
</svg>
