<?xml version="1.0" encoding="utf-8"?>
<!-- Generator: Adobe Illustrator 25.2.3, SVG Export Plug-In . SVG Version: 6.00 Build 0)  -->
<svg version="1.1" id="Layer_1" xmlns="http://www.w3.org/2000/svg" xmlns:xlink="http://www.w3.org/1999/xlink" x="0px" y="0px"
	 viewBox="0 0 147.6 125.3" style="enable-background:new 0 0 147.6 125.3;" xml:space="preserve">
<style type="text/css">
	.st0{fill:#E11931;}
	.st1{fill-rule:evenodd;clip-rule:evenodd;fill:#414042;}
	.st2{fill:#FFFFFF;}
</style>
<g>
	<g id="Group_36" transform="translate(0)">
		<path id="Path_99" class="st0" d="M95.6,29.5l-0.1-0.3l0-0.3v-0.1l0-0.1v-0.2l0-0.1l0,0v-0.1l0-0.1l0.1-0.3l0-0.1l0.2-0.3l0-0.1
			l0-0.1l0.1-0.1l0-0.1l0.1-0.2l0,0v0l0.1,0l0-0.1l0.1-0.1l0.1,0l0.1-0.1l0.2-0.1l0-0.1l0.1,0l0,0l0,0l0,0l0.1,0l0.1-0.1H98l0,0
			l0.1,0l0.1-0.1l0.1,0l0.2-0.1l0.1,0l0.2-0.1l0.1,0l0.1,0l0.2-0.1l0.3,0l0.1,0h1l0.1,0l0.1,0l0.1,0l0.1,0l0.3,0h0.1l0.1,0.1l0,0.1
			l0.1,0.1l0.1,0.1l0,0.1l0.1,0.1l0.1,0.1v0.2l0.1,0.3l0,0.1v0l0,0.1v0.1l0,0l0,0.1l-0.1,0.2l-0.1,0.3l0,0.2v0.1l0,0.1v0.1l-0.1,0.1
			l0,0.1l-0.1,0.1l0,0.1l0,0.1l-0.2,0.1l-0.2,0.3l-0.3,0.3l-0.1,0.2l-0.1,0.2l-0.1,0.2c-0.1,0.2-0.3,0.3-0.5,0.4l-0.3,0.2l-0.1,0.1
			l-0.1,0.1l-0.2,0L99.1,31l-0.4,0.2l-0.1,0.1h-0.2l-0.1,0h-0.1l-0.3,0l-0.4,0c-0.2,0-0.4,0-0.5-0.1L96.5,31l-0.2-0.1
			c-0.1-0.1-0.3-0.2-0.4-0.4l0-0.1l0-0.1l-0.1-0.3L95.6,29.5"/>
		<path id="Path_100" class="st0" d="M91.6,61.5l-0.1-0.4v-0.7l0-0.8v-0.2l0-0.2c0-0.2,0.1-0.3,0-0.5l0-0.4c0-0.2,0.1-0.3,0-0.5
			c0-0.1,0-0.3,0-0.5c0,0,0.1-0.5,0.1-0.7v-0.2l0-0.1l0,0V56l0-0.1v-0.2l0-0.1v-0.1l0-0.4v-0.1l0-0.1l0-0.1l0-0.4l0-0.3v-0.2l0-0.5
			l0-0.3v-0.1l0-0.1l0-0.1l0-0.4v-0.3h0l0,0v0h0v0l0,0l0-0.1l0-0.1l0-0.2v-0.4l0.1,0l0-0.1h0v0l0,0l0,0l0.1,0V50l0-0.2v-0.2l0-0.1h0
			v0l0-0.1l0,0l0-0.1v-0.6l0-0.1v-0.2l0-0.1l0-0.1v0h0.1l0-0.1l0-0.1v-0.1l0,0v0h0.1v0h0v-0.1h0v0h0l0-0.1v-0.3l0-0.2l0-0.3v-0.2h0
			v-0.3l0-0.2v-0.5h0l0-0.1l0,0v-0.1l0-0.1l0-0.1l0,0v0h0v-0.2h0l0,0v0h0V44l0-0.2l0-0.2l0,0v-0.2l0-0.1l0.1-0.2v-0.4h0l0,0l0,0
			v-0.1l0,0l0,0V42l0-0.1l0,0l0.1-0.3l0-0.2l0,0v-0.1l0-0.1l0,0v-0.1l0,0v0l0,0v-0.1l0,0l0,0l0,0l0.1-0.2v-0.1l0.2-0.2l0-0.1l0,0
			l0.1-0.1h0l0.1-0.2l0.2-0.2l0.2-0.2l0.1,0v-0.1l0.1-0.1l0-0.1l0.1,0l0.3-0.2l0.1,0l0.2-0.2l0.2-0.1l0.1,0l0.1,0h0l0,0l0.1,0l0.1,0
			l0.1,0h0.3l0.1,0l0.1,0h0.1l0,0.1l0,0l0.3,0h0.2l0,0l0,0h0.2l0.1,0l0.1,0l0.1,0l0.1,0l0.1,0l0,0.1l0,0h0v0l0,0v0l0,0.1v0.1h0
			l0,0.1v0.2h0v0.1l0,0l0,0v0.1h0v0l0,0v0l0,0l0,0h0.1v0l0,0l0,0.1h0v0l0,0.1v0l0,0.1v0h0l0,0l0,0l0,0.1v0.1h0l0,0.1v0.1l0,0.1v0.2
			l0,0v0.2l0,0v0.1l0,0l-0.1,0l0.1,0.1v0h0v0h0v0l0,0h0l0,0.1v0h0l0,0v0.1l-0.1,0.1l-0.1,0l0,0l0,0v0.1l0,0h0.1l0,0h0l0,0.1l0,0h0
			V42h0v0.2l0,0l-0.1,0l-0.1,0v0l0,0l0,0v0h0.1v0.1h-0.1v0l0,0v0.1h0l0,0v0l0,0l0,0.1l0,0h0l0,0.1l0,0l0.2,0h0.1l-0.1,0.1v0.1l0,0
			l0,0v0h0v0h0l0,0l0,0v0l0,0.1l0,0v0.2l0,0v0h0l0,0.1l0,0.1l0,0.1v0h0l0,0l0,0h0l0,0l0,0v0.3l0,0.1v0l0,0V45l0,0.1v0.8h0v0l0,0l0,0
			l0,0.1l0,0v0l0,0h0.1l0,0v0.1l0,0l0,0l0,0.1v0h0v0l0,0.2l-0.1,0.2l0,0.2l0,0.1l0.1,0.1h0.1l0,0l0,0l-0.1,0l0,0.1l0.1,0.1l0,0v0.1
			l0,0v0.3l0,0v0h0l0,0l-0.1,0l0,0.1v0.1l0,0.1l0,0.1l0.1,0l0.1,0v0.1L99.6,49l0,0l0,0l0,0v0.3l0,0v0.1l0.1,0.1L99,49.5l0,0.1l0,0.1
			l0.1,0.1V50l0,0.1l0,0.2l0.1,0.1v0.1H99l-0.2,0.1l0,0.1l0,0.1V51l-0.1,0L98.6,51l0,0.3l0,0.1l-0.1,0l0,0.1l0,0.2v0.3l0,0.1
			l0.2,0.1l0.1,0l0,0.1l0,0.1l0,0.1l0,0.1v0h0l0,0v0l-0.1,0l-0.1,0h0l0-0.1l0,0l-0.1,0v0.2h0.1l0,0l0,0v0.2l0.1,0l0,0l0,0.1v0.2
			h-0.1l-0.3-0.2h0l0,0v0.1l0,0.1l0,0.2v0.1l0,0l0,0.1l0,0.1c0,0.2-0.1,0.3,0,0.5c0,0.3,0,0.5,0,0.8v0.2l0,0.4V56l0,0l0,0.1v0l0,0
			v0.7l0,0.5l0,0.2l0.1,0.1v0.3l0.1,0l0,0.1l-0.1,0.1l0,0.1v0.2h0l0,0l0,0.3l-0.1,0.3l-0.2,0.1l0,0.2l-0.2,0.3l-0.4,0.4L96.9,61
			l-0.2,0.3l-0.1,0l0,0.1l-0.2,0l-0.3,0.2l-0.2,0l0,0.1h-0.1l-0.4,0.2l-0.7,0.4l-0.7,0.2l-0.5,0l-0.4,0c-0.1,0-0.3-0.1-0.4-0.1
			l-0.2-0.2l-0.3-0.2l-0.1-0.3L91.6,61.5"/>
		<path id="Path_101" class="st0" d="M140.9,47.2l-0.1,0.1v0.1l-0.1,0.2l0.2,0v0.2l0.1,0.1l-0.1,0.1l-0.2,0v0.2l-0.1,0.1v0.2l0,0.1
			l0-0.1l-0.2,0.2h0l-0.1,0.1v0.1l0,0.1l0.1,0.2l-0.1-0.1H140l0,0.1l0,0.1l-0.1,0.2l-0.2,0.2l-0.2,0.4l-0.2,0.1l-0.1,0.1l-0.1,0.2
			l-0.1,0.2l-0.1,0c-0.2,0.1-0.5,0.3-0.7,0.5l-0.4,0.2l-0.7,0.4l-0.3,0.1c-0.3,0.1-0.5,0.2-0.7,0.3c-0.2,0.1-0.4,0.2-0.6,0.2
			l-0.4,0.1c-0.3,0.1-0.6,0.2-0.9,0.3c-0.1,0-0.3,0.1-0.5,0.1l-0.5,0.1c-0.3,0.1-0.6,0.2-0.9,0.3c-0.2,0-0.9,0.2-1,0.3l-0.4,0.1
			c-0.3,0.1-0.6,0.3-0.9,0.3l-0.3,0.1l-0.3,0.1l-0.3,0.1l-0.3,0.1l-0.3,0.1l-0.3,0.1l-0.2,0l-0.2,0.1l-0.4,0.1l-0.3,0.1l-0.2,0.1
			l-0.1,0.1h-0.2l-0.1,0.1l-0.3,0.1l-0.3,0.1l-0.3,0.1l-0.4,0.2l-0.4,0.1l-0.1,0.1l-0.1,0.1l-0.3,0.1v0h0l-0.1,0l-0.2,0.1l-0.4,0.2
			c-0.2,0.1-0.3,0.2-0.5,0.2l-0.4,0.1l-0.3,0l-0.2,0.1l-0.3,0.1l-0.2,0.1l-0.3,0.2l-0.2,0l-0.1,0.1v0l-0.3,0.2l-0.1,0.1l-0.1,0
			l-0.3,0.2l-0.1,0l0,0l-0.2,0l-0.1,0.1l-0.1,0.1l-0.4,0.2l-0.1,0.1l-0.2,0.1l0,0l-0.1,0l-0.3,0.2c-0.2,0-0.4,0.1-0.5,0.2l-0.4,0.2
			l-0.3,0.2l-0.4,0.2l-0.4,0.2l-0.1,0.1l-0.1,0l-0.1,0.1l-0.3,0.2l-0.4,0.2l-0.1,0l0,0h-0.2l-0.1,0.1l-0.1,0.1l-0.3,0.1l-0.1,0.1
			l-0.1,0.1l-0.3,0.2l-0.3,0l-0.1,0.1l-0.2,0.1l-0.4,0.2l-0.1,0.1l-0.4,0.2l-0.1,0.1l-0.3,0.2l-0.2,0.1l-0.1,0.1l-0.1,0l-0.1,0.1
			l-0.1,0.1l-0.1,0l-0.2,0.1l-0.1,0l-0.1,0l-0.3,0.2l-0.1,0.1l-0.1,0l-0.4,0.2l-0.3,0.2l-0.1,0.1l-0.3,0.2l-0.1,0.1
			c-0.3,0.1-0.5,0.2-0.7,0.4l-0.4,0.2l-0.2,0.1l-0.1,0.1l-0.4,0.2l-0.3,0.2l-0.1,0.1l-0.2,0l0,0.1h-0.1l-0.2,0.1l-0.2,0.1l-0.2,0.1
			l-0.3,0.2l-0.2,0.1l-0.1,0.1l-0.2,0.1l-0.1,0.1l0,0l-0.1,0.1l-0.3,0.2l-0.3,0.2l-0.3,0.2l-0.4,0.2l-0.4,0.2l-0.4,0.2
			c-0.2,0.2-0.5,0.3-0.7,0.4L99,70.9l-0.3,0.2L98,71.5l-0.4,0.2l-0.1,0.1l-0.1,0h-0.1l0,0.1l-0.1,0l-0.1,0.1l-0.1,0.1l-0.3,0.1
			L96,72.7l-0.3,0.2L95.5,73l-0.1,0.1l-0.3,0.1l-0.3,0.2l-0.3,0.1l-0.2,0.1l-0.1,0.1l-0.1,0l-0.4,0.2v0l-0.4,0.1l-0.1,0.1l-0.2,0
			l-0.1,0.1l0,0l-0.1,0.1l-0.1,0.1L92.4,75l0.1,0l-0.2,0l-0.2,0.1l-0.2,0.1l0,0.1v0.1l-0.2,0l-0.2,0l-0.4,0.2l-0.3,0.2l-0.1,0.1
			l-0.1,0.1l-0.3,0.2L90,76.6l-0.1,0l-0.3,0.2l-0.3,0.2h-0.1l-0.1,0l-0.1,0l-0.1,0l0,0l0,0h0l-0.2,0.1v0.1h-0.1l-0.2,0.1L88,77.7
			l-0.1,0.1v-0.1l-0.1,0.1h0l0,0.1h0l0,0l0,0v0h0l0,0.1h-0.1l-0.1,0.1h-0.1l-0.1,0l-0.1,0l-0.1,0.1l0,0l0,0l0,0l0,0.1l-0.1,0.1v0.3
			l0,0l-0.3,0l0,0.1l-0.2,0l-0.1,0.1l-0.1,0l-0.1,0.1h0l-0.1,0.2L85.5,80v0.1l0,0v0l0,0v0.1l0,0.1v0.1l-0.1,0.1l0.1,0.1v0.1l0,0.1
			l-0.1,0h-0.1v0.1l0.1,0v0.1l0,0.2v0.1l0,0.1v0.2l0,0.1v0.1l0,0.1l0.1,0l0,0.1v0.1l-0.1,0.1l0,0.1l-0.1,0.1l0,0l0,0.1v0.1h0
			l0.2,0.1l0,0l0,0.1l-0.1,0.1l0,0.2v0.1l0,0.1l0,0.2l0,0l0,0h0.1l0,0v0.1l0.1,0v0.4l0,0.1l0,0.1l0,0.1l0,0.1l0,0.1l0,0.1v0.1
			l-0.1,0v0.1l0,0.1l0,0.2l0.1,0h0.1v0l-0.1,0.1l0,0.1l-0.1,0.1l0-0.1h-0.1l0,0.2l0,0.1v0.1l0,0.2l0,0.1l0.1,0.1l0,0.2l0,0v0l0,0.1
			l0,0.1l0,0.1v0.2l0.1,0.1l0,0.1v0.1l0,0.1v0.1l0,0.1l0,0.1l0,0v0.1l0,0l0,0.1L85,89.4v0.1l0,0l0,0.1l0,0v0.6l0,0v0.5l0,0V91l0,0.1
			h0v0.1l0,0.1l0,0.1v0.1l0,0l0.1,0.1l0,0l0,0l0,0.1h0.1v0l0,0l0,0v0.2h0.1l0,0l0,0.1h-0.1l-0.1,0.1l0,0l0,0.1h0v0.2h0l0,0h0l0,0
			h0.1v0.3h0v0.1l0,0.1v0.1l0,0l0,0l0,0l0,0h-0.1l0,0v0.1l0,0V94l0,0l0,0.2v0.3l0,0v0l0,0l0,0l0,0l0,0l0.1,0v0h0v0l0,0v0.3l0,0v0.2
			l0,0.1v0.2l0,0h-0.1v0H85v0.3l-0.1,0.2h0v0.1l-0.1,0v0h0l0,0l0,0l0,0.1l0,0h0v0.2l0.1,0.1l0,0l0,0v0.2l0,0v0.1l0,0v0l0,0.1l0,0.1
			l0,0l0,0v0l0,0H85v0.1l-0.1,0.2l-0.1,0.2l0.1-0.1l0,0v0.1l-0.1,0.1V99l0,0l0.1,0l0,0l-0.1,0.1l0,0l0,0l0.1,0l0,0L85,99.5l0,0.1
			l0,0h0.1v0.1l-0.2,0l-0.2,0l0,0.1v0.2l0,0l0,0.1l0,0l0,0.2h0.1v0.1l-0.1,0.1l0,0l0,0l0,0.1v-0.1l0.1,0l-0.1,0.1l0.2-0.1l0,0.1
			l0,0.1l0,0.1l0,0.1l0,0.1l0,0l-0.2,0l0,0l-0.1,0.1l0.1,0.1l0,0.1l0.1,0l0.2,0.1l0,0.1l-0.2,0l0.1,0.1l0.1,0v0.1l0,0.2l0.1,0v0.1
			l-0.1,0.1l-0.1,0h-0.1l-0.2,0l0.1,0H85v0.1h-0.1l0,0l0,0l0,0.2l-0.1,0.2l-0.1,0l-0.1,0.1l0,0.2l0.1,0v0.1l0.1,0.1l0,0v0.2h0.1
			l0.1,0l0-0.1h0l0.1,0.3l0,0.2l-0.1,0.1l0.1,0.1v0.1l0.1,0l0.1-0.1l0,0l0,0.2l-0.1,0.2h0.1l0.1-0.1l-0.2,0.2H85l-0.1,0.2l-0.1,0
			v0.1l0,0.1l0.1,0l0,0.1l0,0.2l0.2,0v0.2l0.1,0.1l0,0.1l-0.4,0l-0.1,0.2l0.1,0.2l-0.1,0.1l0.1,0.1v0.1H85l0.1-0.1l0-0.1l0.1,0.1
			l0,0v0.4l0.1,0l0.1,0l-0.1,0.1c-0.1,0-0.3,0-0.3,0.1l0,0.1v0.1l0.1,0.1l0,0.3l-0.1,0.2l0.2,0.2l0,0.2h0.2v0.2h0c0,0,0.3-0.1,0.3,0
			l0,0.1l-0.1,0.1h0v0l-0.1,0c-0.1,0.1,0.1,0.3,0,0.4l0,0.1h0.1c0.2,0,0.4,0,0.2,0.1h0l0,0l0,0v0.1l0,0.2l0.2,0h0.1v0.1l-0.1,0.2
			c-0.2,0.1,0.1,0.1,0.2,0.2l-0.1,0.2l0.2,0l0,0.1l0,0.1l0,0.1v0.1l0,0v0c0-0.1-0.1-0.1-0.1-0.1c-0.1,0-0.1,0.1-0.1,0.1l0.1,0.2
			l0,0.2l-0.1,0.1v0.1l0,0v0l0,0.1l0.1,0v0.2h0.1l0.1,0.1l0,0H86v-0.1l0.1,0l0.1,0l0,0.1l0,0v0h0.1l0,0l0.1,0v0.1l0,0v0.1l0,0l0,0
			l-0.2,0l0,0l0,0v0h0l0,0.1v0.1l0,0.1h0v0l0,0.1l-0.1,0.1l0.1,0v0.1h0.1v0.1l0.1-0.1l0,0.1l0.1,0.1l-0.1,0.1v0.1l-0.1,0.1l-0.1,0.1
			l0.1,0.1l-0.2,0h-0.3c0,0-0.3,0.1,0,0.2l0.1,0l0.1-0.1l0.2,0.1l0,0l0,0l-0.2,0.1h-0.3l0,0.1l0,0h0l0.1,0l0,0.1l-0.1,0v0.2l0.1,0.1
			l0,0.1l0,0.2l0.3,0.1c0.2,0,0-0.2,0.1-0.3l0.1,0.1v0.4l0.1-0.1l0.1,0.1l0.1,0.1l0.1,0.1l-0.1,0.1l-0.1-0.1l-0.3,0.1h0.3l0.2,0.2
			l0.1,0.1l0.1,0l-0.1,0.2c0,0,0.1-0.1,0-0.2c-0.1,0-0.2,0.1,0,0.1l-0.1,0.1l-0.1,0l0.1,0l0.1,0.1l-0.1,0.1v0.2h-0.2l-0.1-0.1l0-0.1
			l0,0.1l0,0l0.1,0v0.1h0.3l0.1,0l0,0.2l-0.1,0l0,0h0v0.1l0.1,0.1l0,0l0.2,0l0.1,0.1h0l0,0.1l0.1-0.1l0,0.2l0.1,0.1l-0.1,0.1
			l0.1,0.1v-0.1l0.1,0.1h0.2l0,0.1l0.1-0.1l0,0.2l-0.2,0.1c-0.2,0.1-0.1,0.1,0,0.2l0,0.1h-0.1l0.1,0l0.1,0.1l-0.2,0.1l0,0.1l0,0.1
			l0,0.2l0.1,0l0,0l0.3,0.1l-0.1,0l-0.1,0.1h-0.1l0,0H87l0,0.1l0,0l0,0.1l-0.1,0.3l0,0.2l-0.1,0.1l-0.2,0.3l-0.1,0.1l-0.1,0.1
			c-0.3,0.3-0.6,0.5-1,0.7l-0.2,0.1l-0.1,0.1l-0.2,0l-0.2,0.1c-0.3,0.1-0.5,0.1-0.8,0h-0.7l-0.5-0.1c-0.3-0.1-0.6-0.2-0.9-0.3
			l-0.4-0.2l-0.3-0.2l-0.4-0.3l-0.1-0.2l-0.2-0.1l-0.2-0.2l-0.1-0.4l0-0.1l0-0.1l0-0.2l-0.1-0.4l0-0.1l0-0.2h0l0-0.4l-0.1-0.2v-0.1
			l0,0l0-0.2l0-0.2v-0.2l0-0.1v-0.2l0-0.1v-0.2l0-0.4v-0.6l-0.1-0.2l0-0.1l0-0.2c0-0.2,0.1-0.4,0-0.6l0-0.2V117l0-0.4
			c0-0.2,0.1-0.4,0-0.6v-0.2l0-0.2l0-0.2v-0.6l0-0.4l0-0.2v-1l0-0.4v-0.5l0-0.1v-0.2l0-0.3l0-0.1V111l0-0.4v-0.9l0-0.4l0-0.2l0-0.3
			l0.1-0.4V108l0-0.2l0-0.1v-0.2c0-0.1,0-0.3,0-0.4v-0.5l0-0.4v-0.2l0.1-0.3v-0.3c0-0.2,0-0.5-0.1-0.7l0-0.2v-0.7l0-0.4v-0.3l0-0.3
			l0-0.4l0-0.2v-0.2l0-0.2l-0.1-0.2V101l0.1,0l0-0.5l0-0.1l-0.1-0.1l0-0.1V100l0-0.2l0-0.1v0h0v-2l0-0.2l0-0.2v-0.5l0-0.2V96l0-0.1
			l0,0v-0.4l0-0.2l0-0.2v-0.2c0-0.2,0-0.5,0-0.7h0v-1.4l0-0.2v-2.1l0-0.1l0-0.1V88l0,0V87c0-0.3,0-0.6,0-0.9l0-0.2l0-0.2l0-0.4v-0.2
			l0-0.1l0-0.2v-0.4l0,0l-0.3,0.1l0,0l0,0l-0.2,0l-0.2,0.1L78,85l-0.2,0.1l-0.1,0.1l-0.3,0.2l-0.3,0.2l-0.2,0.2l-0.2,0.1l-0.3,0.2
			l-0.3,0.2l-0.3,0.2l-0.1,0.1L75.3,87l-0.2,0.1l-0.1,0.1l-0.4,0.3l-0.3,0.2L73.9,88l-0.1,0.1l-0.2,0.1l-0.2,0.2l-0.2,0.1l-0.2,0.1
			l-0.2,0.1L72.6,89l-0.1,0.1l-0.1,0.1l-0.1,0.1L72,89.5l-0.1,0.1h-0.1l0,0l-0.1,0.1l0,0l-0.1,0L71.3,90L71,90.3l-0.3,0.2l-0.1,0.1
			l-0.1,0.1l-0.1,0l0,0.1l-0.3,0.3l-0.1,0.1l0,0l0,0.1l-0.1,0l-0.1,0.1l0,0l-0.3,0.2l-0.3,0.2l-0.3,0.2l-0.1,0.1l-0.1,0.1
			c-0.2,0.2-0.4,0.3-0.6,0.5l-0.3,0.3l-0.1,0.1l-0.1,0l-0.1,0l-0.1,0.2l-0.1,0l-0.1,0l-0.1,0.1l-0.1,0.1l-0.1,0.1L66,94.3l-0.3,0.2
			l-0.3,0.2l-0.2,0.1L65,95.1h-0.1l0,0l-0.1,0.1l-0.3,0.3l-0.1,0.1l-0.1,0l0,0L63.9,96l-0.2,0.2l-0.2,0.1l-0.3,0.3l-0.3,0.2
			l-0.3,0.3l-0.2,0.1l0,0.1l-0.1,0l-0.3,0.3c-0.2,0.2-0.4,0.3-0.6,0.5l-0.4,0.4l-0.4,0.2L60.2,99c-0.2,0.2-0.4,0.3-0.6,0.5l-0.3,0.3
			l-0.3,0.3l-0.1,0.1l-0.1,0.1l-0.3,0.3l-0.3,0.2c-0.1,0.1-0.4,0.2-0.5,0.4l-0.2,0.2v0l-0.2,0.2l-0.2,0.1l-0.2,0.1l-0.1,0.1
			l-0.3,0.2l-0.1,0.1l-0.2,0.1l-0.1,0.1l-0.1,0.1l-0.2,0.1l-0.1,0.1l-0.3,0.2l-0.1,0.1l-0.1,0.1l-0.2,0.3l-0.2,0.1l-0.1,0.1
			l-0.2,0.2l-0.2,0.3l0,0.1l-0.2,0.1l-0.2,0.2l-0.1,0.1l-0.1,0.1l-0.2,0.3l-0.1,0.1l-0.1,0.1l-0.2,0.2l-0.2,0.1l-0.3,0.2
			c-0.2,0.2-0.3,0.2-0.5,0.4l-0.3,0.3l-0.2,0.2l-0.1,0.2l-0.1,0.2l-0.1,0.1l0,0v0.1l-0.2,0.1l-0.2,0.3l-0.2,0.1l-0.1,0.2l-0.2,0.2
			l-0.1,0.1c-0.2,0.1-0.4,0.3-0.5,0.5c-0.1,0.3-0.3,0.5-0.4,0.7l-0.4,0.3l-0.2,0.3l-0.1,0.2l-0.1,0.1l-0.2,0.3l-0.3,0.3l-0.1,0.1
			l-0.1,0.1l0,0l-0.2,0.3l-0.1,0.1l-0.1,0.1l-0.2,0.2l-0.2,0.3l-0.3,0.2l-0.1,0.1l-0.1,0.1l-0.2,0.3l-0.2,0.2l-0.3,0.3l-0.1,0.1
			l-0.1,0.1l-0.1,0.1l-0.1,0l0,0v0h0l0,0l-0.1,0.1l-0.1,0.2l-0.1,0.2l-0.2,0.3l-0.1,0.2l-0.1,0.1l0,0.2l-0.2,0.1l-0.1,0.1l-0.2,0.1
			l-0.1,0.1l-0.1,0.1l-0.1,0.1l-0.1,0.1l-0.1,0.2l-0.1,0.1c-0.1,0.1-0.2,0.2-0.3,0.3l-0.3,0.2l-0.2,0.2l-0.2,0.3l0,0.1l0,0
			c-0.1,0.1-0.3,0.3-0.5,0.4l-0.3,0.3l-0.1,0.1l-0.1,0.1l-0.2,0.1l-0.1,0.1l-0.2,0.3l-0.1,0.1l-0.2,0.1l-0.1,0.1l-0.2,0.1l-0.1,0.1
			l-0.1,0.1l-0.1,0.1H37l0,0.1l-0.1,0.1l-0.1,0.1h-0.5l-0.2,0l-0.2,0l-0.2,0l-0.2,0h-0.2l-0.1,0H35l-0.4,0l-0.2-0.1l-0.2,0l-0.2-0.1
			l-0.2,0c-0.2-0.1-0.5-0.3-0.7-0.4l-0.3-0.3l-0.2-0.2l-0.1-0.3l-0.1-0.1l-0.2-0.4l-0.1-0.2l-0.1-0.4l0-0.2v-0.3
			c0-0.2-0.1-0.3-0.1-0.5l0.1-0.5l0-0.2l0.2-0.4l0.2-0.4l0.3-0.4c0.1-0.2,0.3-0.5,0.5-0.6c0.3-0.2,0.5-0.5,0.7-0.8l0.3-0.4l0.4-0.4
			c0.2-0.2,0.5-0.5,0.8-0.8c0.2-0.2,0.5-0.4,0.7-0.7c0.2-0.2,0.4-0.4,0.7-0.6l0.3-0.3l0.3-0.3l0.3-0.3l0.1-0.2l0.2-0.2
			c0.2-0.2,0.5-0.4,0.8-0.7c0.2-0.2,0.5-0.5,0.7-0.6l0.4-0.4l0.4-0.3c0.2-0.3,0.5-0.5,0.7-0.7l0.3-0.3l0.1-0.1l0.1,0l0.1-0.2
			l0.2-0.1l0.2-0.2l0.2-0.1l0.2-0.2l0.4-0.3l0.1,0l0-0.1l0.2-0.2l0.3-0.2l0.3-0.3c0.2-0.2,0.5-0.5,0.8-0.6l0.4-0.3l0.4-0.3l0.1-0.2
			l0.2-0.1l0.4-0.3l0.3-0.3l0.4-0.3l0.1-0.1l0.4-0.3l0.2-0.1l0.2-0.1l0.1-0.2l0.2-0.1c0.3-0.2,0.6-0.6,0.9-0.8
			c0.3-0.2,0.5-0.4,0.8-0.6l0.3-0.3l0.2-0.1l0.2-0.1l0.1-0.3l0.2-0.1c0.3-0.2,0.5-0.5,0.8-0.7l0.3-0.3l0.1-0.2l0.1-0.2l0.4-0.1
			l0.2-0.2c0.1-0.1,0.5-0.3,0.5-0.5l0.1,0c0-0.2,0.4-0.2,0.3-0.4c0.2-0.1,0.4-0.2,0.5-0.3c0.2-0.2,0.4-0.3,0.6-0.5
			c0.2-0.2,0.4-0.4,0.6-0.6l0.2-0.1l0.2-0.2l0.4-0.3c0.3-0.2,0.5-0.4,0.8-0.6c0.3-0.2,0.5-0.4,0.8-0.6l0.4-0.3l0.3-0.3l0.3-0.2
			l0.4-0.2l0.3-0.3l0.4-0.2l0.2-0.2l0.2-0.1l0.2-0.1l0.2-0.1l0.1-0.2l0.2-0.1l0.4-0.3v-0.1l0.2-0.1l0.2-0.1l0.3-0.2l0.3-0.2l0.2-0.1
			l0.1-0.1v0.1l0.1-0.1l0.1-0.1l0.1-0.1l0.4-0.2l0.1-0.1l0.1-0.1l0.3-0.2h0.1l0-0.1l0.2-0.1l0.1-0.1l0.1-0.1l0.3-0.2l0.3-0.1
			l0.1-0.1l0.1-0.1l0.1-0.1l0.1,0v0c0.2-0.1,0.3-0.2,0.5-0.3c0.2-0.1,0.4-0.2,0.5-0.4l0.3-0.3l0.2-0.1l0.2-0.1l0.2-0.1l0.2-0.1
			l0.1-0.2l0.2-0.1l0.2-0.2l0.3-0.1l0.2-0.2l0.2-0.2l0.2,0l0.1-0.1l0.2-0.1l0.2-0.1l0.1-0.2l0.2-0.1l0.4-0.2l0.1-0.1l0.1-0.1
			c0.3-0.2,0.7-0.4,1-0.7c0.3-0.2,0.6-0.4,0.8-0.7l0.7-0.6l0.2-0.1l0.1,0l0.1-0.1l0.2-0.1l0.2-0.1l0.4-0.3c0.3-0.3,0.7-0.5,1-0.7h0
			l0.1,0l0.3-0.2l0.3-0.2l0.4-0.3l0.3-0.3l0.2-0.1l0.2-0.1l0.2-0.1l0.3-0.1v0l0,0v-0.8l0,0v-0.1l0-0.1V76l0-0.1v-0.2l0.1-0.1
			l-0.1-0.2v-0.3l0-0.1l0-0.1l0-0.2v-0.2c0-0.1,0-0.3,0-0.5c0-0.1,0-0.4-0.1-0.5h-0.1l-0.2,0l-0.1,0.2l-0.2,0.1l-0.2,0.1L78,74
			l-0.1,0.2l-0.3,0l-0.1,0.2l-0.1,0l0,0.1l-0.2,0l0,0.1l-0.1,0c0,0.1-0.1,0.1-0.3,0.1L76.2,75h-0.5l-0.1,0.1l-0.2,0l0,0.1l-0.2,0
			L75,75.4l-0.2,0.1l0.2,0.1h-0.3l-0.2,0l-0.2,0h-0.1l0,0H74l0,0.1h0l-0.2,0c-0.2,0-0.3,0.1-0.5,0.1c-0.2,0-0.4,0-0.6,0l-0.2,0H72v0
			h-0.5v0h-0.1v0h-0.2l-0.2,0h-0.2l-0.2,0l-0.2-0.1l-0.3,0l-0.2,0l-0.2,0v0.1l-0.1-0.1l-0.1-0.1l-0.4-0.1c-0.2-0.1-0.4-0.2-0.6-0.4
			l0,0l0-0.1l-0.3-0.3l-0.4-0.4L67.1,74L67,73.8l-0.1-0.2l-0.1-0.2L66.7,73l-0.1-0.4l-0.1-0.2v-0.2c0-0.3-0.1-0.5-0.1-0.7v-0.3
			l0-0.3l0-0.3h0V70c0-0.4,0-0.8,0-1.1c0-0.2,0-0.4,0-0.6l0-0.3c0-0.3,0-0.6,0-0.9v-1.2l0-0.3l-0.1-0.2v-0.5l0-0.3v-0.3l0-0.2
			l0.1-0.2l0.1-0.2v-0.3c0-0.3,0-0.6,0-0.9c0-0.3,0-0.6,0-0.9v-0.6l0,0v-0.6l0.1-0.3v-0.3l0-0.2l0.1-0.4l0-0.1l0-0.2l0.1-0.3
			c0-0.3,0.1-0.5,0.1-0.7l0.1-0.4l0.1-0.4l0.1-0.4l0.1-0.3l0-0.3l0.1-0.2l0-0.1l0.1-0.1l0-0.2l0.1-0.1l0-0.2l0.1-0.4l0.1-0.1l0-0.2
			l0.1-0.1l0.1-0.1l0.1-0.1l0,0v-0.1l0,0V53l0.1-0.1l0.1-0.2l0-0.1h0l0.1-0.2l0.2-0.2l0.1-0.2l0.1-0.1l0-0.1l0.1-0.1l0.2-0.3
			l0.3-0.4l0.1-0.2l0.1,0l0-0.1l0.2-0.2l0.1-0.1l0-0.1l0.1,0l0-0.2l0.1-0.1l0.2-0.2c0.2-0.2,0.4-0.4,0.6-0.5
			c0.2-0.2,0.4-0.3,0.6-0.4l0.2-0.2l0.1,0l0.1,0l0.1,0l0.1,0l0.1,0l0.1-0.1l0.1-0.1l0.1-0.1l0.3-0.1l0.2-0.1l0.2,0l0.1-0.1l0.2,0
			l0.3-0.1l0.4-0.1l0.1-0.1l0.2,0h0.2l0.2,0h0.2l0.2,0l0.2,0l0.2,0l0.2,0l0.2,0l0.1,0.1l0.1,0.1l0.1,0.1v0.2l0,0l0,0.2l0,0.2l0,0.4
			l-0.1,0.3l0,0.1l0.1,0.2l-0.2,0.4v0.2l-0.1,0.1l0,0.3l-0.2,0.2l-0.1,0.1v0.3l-0.2,0l0,0.1l0,0.1l-0.1,0.2l-0.2,0.1l0,0.2l-0.2,0.1
			v0h0v0L76.2,52c-0.1,0.1-0.1,0.3-0.1,0.4H76c0,0.2-0.1,0.2-0.2,0.3l0,0L75.6,53l-0.1,0.2l-0.1,0.3l0,0l-0.1,0.2l-0.2,0.1
			c0,0.1,0,0.3-0.1,0.3v0.2l-0.2,0.1c-0.2,0-0.2,0.3-0.2,0.5c0,0.2-0.1,0.3-0.1,0.5c0,0.2-0.2,0.3-0.3,0.4l-0.2,0.4
			c0,0.2-0.1,0.3-0.1,0.5c0,0.2,0,0.3-0.1,0.5l-0.1,0.2l0,0.2l0,0.2l0,0.2l-0.2,0.3l-0.1,0.2l0,0.6l0,0.2l0,0.2V60l0,0.1l0.1,0.2
			l0.1,0.5l-0.1,0.4l0.1,0.1l-0.1,0.1v0.3l0,0.2l0,0.2c0,0.2,0,0.3-0.1,0.4C73,63.1,73,63.4,73,63.7l0,0.5l-0.1,0.4l-0.1,0.2V65
			l0,0.2c0.1,0.1,0.1,0.3,0.1,0.4l0,0.1l0.1,0.1l0,0.1c-0.1,0.3-0.1,0.6,0,0.9c0,0.3,0.1,0.6,0.2,0.9l0.1,0.1l0,0.2l0.2,0.4l0.3,0.3
			l0.2,0.1l0.2,0.1l0.2,0.1h0.2l0.4,0c0.3,0,0.5-0.1,0.7-0.1l0.2-0.1l0.2-0.1l0.2-0.1l0.2,0l0.1-0.1l0.2-0.1l0.1,0l0-0.1l0.1-0.1h0
			l0.2-0.2c0.1-0.2,0.3-0.3,0.4-0.5l0.2-0.2c0.3-0.5,0.6-1,0.6-1.5l0.1-0.4l0-0.2v-0.2c0.1-0.3,0.2-0.6,0.1-0.9l0.1-0.4
			c0-0.2,0-0.4,0-0.5l0.1-0.1v-0.2c0-0.2,0-0.4,0-0.7l0-0.4v-0.4h0v-0.4l0-0.3l0.1-0.4l0-0.4v-0.1l0,0V59c0-0.2,0-0.4,0-0.5
			c0-0.2,0-0.3,0-0.5v-0.7l0.1,0v-0.6l-0.1,0l0-0.2c0-0.2,0.1,0,0.2-0.1v-0.3l0.1-0.3l0-0.4v-0.4l0-0.2l0-0.2v-0.2l0-0.2
			c0-0.2,0-0.4,0-0.5l0-0.2v-0.2l0-0.4c0-0.2,0.1-0.3,0-0.5V51l0-0.1l0-0.1l0-0.2l0-0.2v-0.7l0-0.1l0-0.1l0-0.4v-0.6
			c0-0.2,0-0.4,0-0.6l0-0.5l0-0.2v-0.3l0.1-0.4V46l0-0.2l0-0.2l0.2-0.4l0,0V45l0.1-0.1v0h0l0.2-0.3l0.2-0.2l0.2-0.2l0.2-0.2l0.1,0
			l0.2,0l0-0.1l0.2,0l0.2,0l0.3-0.1c0.3-0.1,0.7-0.1,1-0.1c0.2,0,0.4,0,0.5,0c0.2,0,0.4,0.1,0.5,0.1c0.3,0,0.6,0.2,0.8,0.4l0.2,0.3
			l0.1,0.1l0.1,0.1l0.1,0.3V45l0.2,0l0,0l-0.2,0l0.1,0.1l-0.1,0.2v0.4l0,0.2l0,0.2l0,0.1l-0.1,0.1v0.2l0,0.3l0.1,0.1l0,0.1l-0.1,0
			v0.2l0,0.2l0,0.2l-0.1,0.2l0,0.2v0.2l0,0.1l-0.1,0.1l0.1,0.2c0.1,0.2-0.1,0.2-0.1,0.3l0,0.1l0,0.2v0.2l0,0.2l0,0.2v0.1l-0.1,0V51
			l-0.1,0l0,0.1l0.1,0.2l-0.1,0v0.5l0.1,0c0.2,0.1-0.1,0.2-0.2,0.2v0.5l0,0.3l0,0.3l0,0.2l-0.1,0.2l0.1,0.1l0,0.1l0,0.3
			c0,0.2,0,0.4,0,0.6v0.3l0,0.3c0,0.4,0,0.8,0,1.2c0,0.4-0.1,0.9-0.1,1.4l0,0.3v0.4l0,0.4v0.3l0,0l0,0.1v0.4c0,0.2,0,0.4,0,0.6
			c0,0.2,0,0.4,0,0.6v0.5c0,0.1,0,0.2-0.1,0.4l0,0.4v0.7l0.1,0L86,63.6l-0.1,0.2v0.2c0,0.2,0,0.4,0,0.6l0,0.3v0.1l0.1,0l-0.1,0.1V66
			l0.1,0.2v0.1l0,0v0.1l0,0.1l0.1,0.2l-0.1,0.3l0,0.1l0.1,0.1h-0.1l0,0.4c0,0-0.2,0.2,0,0.2l-0.1,0.3l0.1,0.2v0.1l0,0l0,0.1v0.1
			l-0.1,0.1l0,0.1v0.1l0,0.2l0,0.4l0,0.4l0,0.4l0,0.4l0,0.4l0,0.2l0,0.2v0.2l0,0.1l0,0.3l0,0l0.4-0.1l0.1-0.1l0-0.1l0.1,0l0.1-0.1
			l0.1,0l0.1-0.1l0.1-0.1l0.1-0.1l0.1-0.1l0.2-0.1l0.3-0.2l0.1-0.1l0.2-0.1l0.4-0.2l0.3-0.2l0.2-0.1l0.1-0.1l0.2,0l0.2-0.1
			c0.4-0.3,0.7-0.5,1.1-0.7c0.6-0.4,1.2-0.7,1.8-1.1c0.3-0.2,0.6-0.4,1-0.6c0.3-0.2,0.6-0.4,1-0.5l0,0l0.2-0.2l0.2-0.1l0.2,0
			l0.2-0.1l0.3-0.2l0.3-0.2l0.3-0.3l0.3-0.1l0.3-0.1l0.3-0.2l0.3-0.2l0.1-0.1l0.2-0.2l0.3-0.2l0.4-0.2l0.4-0.1l0.4-0.2l0.3-0.2
			l0.1-0.1l0.1,0l0.3-0.2l0.1,0v-0.1l0.2-0.1l0.1,0.1l0.2-0.1l0.2-0.1l0.2-0.1l0.3-0.2h0.1l0,0l0.1,0l0,0l0.1,0h0.1l0.1-0.1l0.2,0
			l0.2-0.1l0.2-0.1l0.1-0.1l0.2-0.1l0.1-0.1l0.2-0.1l0.3-0.2c0.2-0.1,0.5-0.3,0.8-0.5l0.3-0.2l0.2,0l0.1-0.1l0.3-0.2l0.4-0.1
			c0.2-0.1,0.5-0.3,0.7-0.3l0.3-0.2l0.4-0.2c0.3-0.2,0.5-0.3,0.8-0.4c0.2-0.1,0.5-0.3,0.8-0.4l0.1-0.1l0.2-0.1l0,0h0.1l0.1-0.1
			c0.2-0.2,0.5-0.3,0.7-0.4c0.3-0.2,0.5-0.3,0.8-0.4l0.2-0.1l0.2-0.1L112,57l0.1,0l0.5-0.3l0.2-0.1l0.2,0l0,0l0.3-0.2
			c0.3-0.1,0.5-0.3,0.8-0.4l0.1-0.1l0.2-0.1l0.4-0.2c0.6-0.3,1.1-0.6,1.6-1c0.2-0.1,0.5-0.2,0.7-0.4c0.2-0.1,0.3-0.2,0.5-0.3
			l0.2-0.1l0.2-0.1l0.1-0.1l0.2-0.1l0.3-0.2l0.3-0.2l0.5-0.3l0.1,0l0.2-0.2l0.1-0.1l0.1-0.2c0-0.2,0-0.2-0.1-0.2l-0.4-0.2l-0.1-0.1
			l-0.2-0.1L119,51l-0.1-0.2l-0.1-0.2l0-0.2l-0.1-0.1l-0.1-0.2v-0.2l-0.1-0.4c0-0.2,0-0.3,0-0.5c0-0.3,0-0.6,0-0.9v-0.4l0-0.2l0-0.2
			v-0.2l-0.1-0.2l0.1-0.3l0-0.3l0-0.1v-1.3c0.1-0.2,0.1-0.4,0.1-0.5l-0.1-0.4l-0.1-0.3c0-0.2,0-0.3,0.1-0.6v-0.2l0.1-0.2l0.1-0.4
			v-0.1l0,0l0-0.3v-0.1l0,0l0-0.2l0.1-0.1v-0.2h-0.1v-0.3l0.1,0v-0.2l0-0.4v-0.1c0-0.3,0-0.7,0-1v-0.4l0-0.4h0l0,0l0,0v-0.7
			c0-0.4,0-0.7,0-1.1c0-0.3,0-0.7,0-1v-0.2l-0.1,0l-0.1-0.1l0.2,0c-0.1-0.3-0.4-0.4-0.7-0.5h-0.4l0,0l-0.1,0l-0.1,0l-0.1,0l-0.2,0.1
			l-0.3,0l-0.3,0.2l-0.2,0.1l-0.1,0.1l-0.2,0l-0.1,0.1c-0.1,0.1-0.1,0.3-0.3,0.3l-0.2,0l-0.1,0.1l-0.1,0.1l0,0.1v0.1l-0.3,0.1
			l-0.1,0.4l-0.1,0.1l-0.1,0.1l-0.3,0.3l-0.2,0.2l-0.1,0l0-0.1l-0.1,0l0.1,0.1l-0.1,0.4l-0.3,0.2l-0.2,0.1l0,0.1l0,0.4l0,0.2l0,0.2
			l0,0v0.1l-0.1,0l0,0.1l0,0.2v0.6l0,0l0,0.2l-0.1,0.1l-0.1,0.2l0.2,0.1l-0.1,0.2l-0.1,0.1h-0.1c0.2-0.1-0.1-0.2-0.1-0.1l0,0.2
			l-0.1,0l0,0l0.2,0.2l0.1,0l-0.1,0.1l-0.1,0.1l0.1,0.1l-0.3,0.1l0.2,0l0.1,0.1l-0.3,0l-0.2,0.2l0.1,0.1v0.2l0.1,0.1l0,0.1l0.1,0.1
			l0,0.1l0,0.2c-0.1,0,0,0.3-0.2,0.2h-0.4l0,0c0.1,0.2-0.2,0.1-0.3,0.2l0.1,0.2l0,0l-0.2,0V44h0l0,0.1l0.1,0.1l0.2,0.2l0.1,0l0,0
			l0,0.2l-0.1,0.2l0.1,0.1v0.2l0,0.1l0.1,0v0.1l-0.2,0.1l-0.2,0l0-0.3l0,0.1v0.1l0,0.1c0,0-0.3,0.1-0.1,0.2l0,0.2l0.1,0l0.1,0.1
			l0,0.2H111l-0.1,0.1V47l0,0.1v1.5l-0.1,0.2l0.1,0.1l-0.1,0.1l0.1,0L111,49l0,0h0.1l-0.1,0.3l-0.2,0.1l0.1,0.1l-0.1,0.1v0.2
			l0.1,0.2l0.1,0v0.1l-0.3,0l0.3,0.1l0.1,0.1l0.1,0.2l-0.2,0.3v0.1l0,0.1l0,0.2l-0.1,0.2l0,0v0.1l0,0.2v0.1l-0.2-0.3l0.1,0.3l0,0.3
			l0.1,0.2V53l-0.2,0l0,0.1l-0.1,0.1l-0.1,0.1c0,0.1,0.1,0.2-0.1,0.2v0.1l0,0.1V54l0,0.1l0,0.1l-0.1,0l0,0.1l0,0v0.5l-0.3,0.2h0
			l-0.2,0h0l-0.1,0.2l-0.1,0.1l0,0.1l-0.1,0l-0.1,0l-0.2,0.1l-0.1,0.1l-0.4,0.1l-0.1,0.1l-0.1,0l-0.2,0.1l-0.2,0.1l-0.2,0.1
			c-0.2,0.1-0.4,0.1-0.6,0.2c-0.2,0.1-0.4,0.1-0.6,0.1c-0.2,0-0.3,0-0.5,0l-0.1,0l-0.1,0l-0.3,0c-0.2-0.1-0.4-0.1-0.5-0.2
			c-0.2-0.1-0.3-0.2-0.4-0.4l-0.1-0.2l-0.1-0.1v0l0,0c-0.1-0.2-0.1-0.4-0.1-0.6v-0.3l0-0.2v-0.3l0-0.1l0-0.2v-0.2l0-0.3l0-0.3v-0.1
			l0-0.1l0-0.3l0-0.3c0-0.2,0-0.4,0-0.6l0-0.3v-0.2l0-0.2v-0.3h-0.1l0-0.3v-0.3l0,0l0,0l0-0.2v-1.2l0-0.2c0-0.2,0-0.4,0-0.6v-1.3
			l0-0.1l0-0.1l0-0.2l0-0.2l0-0.3V45l0-0.3V44l0-0.3v-0.8c0-0.2,0-0.4,0-0.6c0-0.2,0-0.4,0-0.6v-0.3l0-0.1l0-0.1
			c0-0.2,0.1-0.4,0-0.6c0-0.2,0-0.4,0-0.6c0-0.2,0-0.4,0-0.6c0-0.3,0.1-0.5,0-0.8c0-0.3,0-0.7,0.1-1V37c0-0.1,0-0.3,0-0.5
			c0-0.3,0.1-0.6,0.3-0.8l0.1-0.4l0.2-0.4l0.2-0.3l0.2-0.3l0.2-0.3l0.3-0.4l0.2-0.2l0.1,0l0,0l0.1,0l0,0l0.2-0.1l0.4-0.2l0.4-0.2
			l0.1,0l0.2,0l0.4-0.1c0.3-0.1,0.7-0.1,1-0.1l0.5,0h0.5L111,32l0.2-0.1h0.6L112,32l0.1,0.1h0.3l0.2,0l0.2,0l0.4,0h0.2l0.2-0.1
			l0.2-0.1l0.2,0l0.3-0.2l0.3-0.2l0.1-0.1l0.1-0.1l0.3-0.2l0.1-0.3l0.1,0l0.1-0.1v0c0.1-0.2,0.3-0.4,0.5-0.6l0.2-0.1l0.1-0.1
			l0.2-0.3l0.3-0.3l0.2-0.2l0.1-0.2l0.3-0.2l0.4-0.2l0.7-0.4l0.4-0.2l0.3-0.1l0.2-0.1l0.4-0.1l0.2-0.1l0.2,0l0.1,0h0.1l0.1,0
			l0.5-0.1h0.5c0.1,0,0.3,0,0.5,0l0.4,0.1c0.3,0.1,0.6,0.2,0.8,0.3l0.2,0.1l0.2,0.1l0.2,0.3c0,0,0.1-0.3,0.2-0.1l0,0.1l0,0.1
			l0.1,0.1l0,0.1l0,0.3l0.1-0.1l0,0.2l0.1,0.4v0.2l0.2,0l0.2,0.3l-0.3,0v0.5l0.1,0.1l0.1,0.2h0.2l-0.1,0l-0.1,0.1v0.3l0,0.1l0.1,0.1
			h0.1l0,0.1h-0.1l0,0h-0.2l-0.1,0.1c0,0.2-0.1,0.3,0,0.5v0.2l0.1,0.1v0.1l-0.1,0.1V33l0.1-0.1l0.2-0.2v0.1l0,0v0.6l0.2,0.1l0,0.1
			l-0.1-0.1l-0.1,0.1l0.1,0.1v0.1l-0.1,0.1l0.1,0l-0.1,0.1l0,0.1l0,0.1l0,0.2l0.1,0.2l0.1,0.2l0,0v0.1h-0.1l-0.1,0l-0.1,0l0,0.5
			l0.2,0.1l0.1,0.1l-0.2,0.1l-0.1,0.1v0.2h0.1v0.1l0.2,0.1l-0.1,0h-0.2l0,0.3l0,0.1l0,0.2c0,0.2,0,0.4,0,0.5v0.6c0,0.2,0,0.3,0,0.5
			v0.8l0.1,0.1l0.1,0.2v0.1h-0.2v0.1l0,0l0,0.1v0.1l0.1,0.2l0.1,0.1l-0.2,0.1l0,0.1l0,0.1v0.1l0,0.1l0.2,0.1l0,0.2l-0.1,0.1l0,0.1
			l0,0.1l0,0.1l0,0.1v0.1l-0.1,0.1v-0.2l-0.1,0.1l0,0.1l0,0.1l0.1,0.1v0.5l-0.1,0l0,0.1v0.2l0,0.1l0,0l0.1,0l0-0.1l0.1,0.1v0.2h-0.2
			l0,0.1l0.1,0.1l-0.2,0l0.1,0.3l0.2,0l0,0.2l-0.1,0l-0.2,0.1l0.1,0.2l0,0.2v0.1l0,0.1l0,0l0.1,0l0.2,0c0,0-0.3,0.3-0.1,0.3v0.2h0.2
			l0,0h0.1l0,0.2l-0.2,0.2v0.1l0,0l-0.1,0l0.1,0.1l0.1-0.1l0.1,0.1v0.2l0,0l0,0.2l0.1,0l0,0.1l0,0l0.1,0.1l0.2,0l0.1,0.3l0.3,0.1v0
			l0.2,0h0.3c0.3,0,0.6-0.1,0.8-0.2l0.4-0.1L129,48l0.1,0l0.3-0.2l0.3-0.1l0.1-0.1l0.2-0.1h0v0h0.1l0.1-0.1l0.1-0.1l0,0v0l0.2-0.1
			l0.1,0l0.1-0.1l0.3-0.1h0.1l0.1-0.1l0.1,0l0.1-0.1l0.1,0l0.4-0.2l0.3-0.2l0.3-0.2l0.3-0.2l0,0l0.2-0.1l0.1,0l0,0l0.1-0.1l0.3-0.2
			l0.7-0.3l0.1,0l0.4-0.1l0.4-0.1l0.2,0l0.1,0l0.1,0h0.3c0.2,0,0.4,0,0.7,0l0.3,0l0.2,0l0.2,0l0.3,0h0.3l0.2,0l-0.1-0.1h0.1l0.1,0.2
			l0.2,0.1l0-0.1l0.2,0.1l0.1,0.1l0,0.1l0.1,0l0.1,0.1l0.1,0.1l0.1,0.2l0.1,0.1l0.1,0.1l0.1,0.1l0.1,0.1l0,0.2l0,0v0.1l0.1,0.1
			l-0.1,0.1l0.1,0.1l0,0l0,0.1L140.9,47.2"/>
		<path id="Path_102" class="st0" d="M55.6,56.2L55.6,56.2l0.3-0.1l0.3,0c0.2,0,0.5-0.1,0.7,0l0.3-0.1l0.2,0l0.1,0l0.4-0.2l0.4-0.1
			l0.2-0.2l0.3-0.1l0.3,0l0-0.1l-0.1,0l0.2-0.1v0l0.1,0h0.3l0.2-0.2l0.1,0l0.1,0l0.1,0h0l0,0l0.2-0.1l-0.1-0.1l0.1,0l0,0h0l0,0.1
			l0.1,0v-0.2l0.1,0l0.2,0v0h0l0.1,0l0.1,0l0.2,0l0.2,0h0.3l0.4,0.1l0.2,0l0.1,0.1l0.2,0.2l0.1,0.1l0,0.1l0,0.1l0.1,0.1l0.1,0.1v0.2
			l0,0.1v0.1l0.1,0.1l0,0l0,0v0l0,0v0l0,0l0.1,0.1h0l0,0.1l0.1,0.2l0,0.2l0,0.2v0.4l-0.1,0.4L64,57.9l0,0.1l-0.1,0.1l-0.1,0.1
			l-0.1,0.3c-0.2,0-0.3,0.3-0.4,0.4L63,59.1l0,0l0,0l-0.2,0.2l-0.3,0.2l-0.2,0.1L62,59.9l-0.1,0l0,0l-0.1,0.1l-0.3,0.2l-0.3,0.1
			l-0.2,0.2l-0.2,0.1l0,0l-0.1,0L60.6,61l0,0.1h-0.1l-0.1,0.1l0,0l-0.1,0.1L60,61.5h0l-0.1,0l-0.1,0.1l-0.1,0.2l-0.2,0.3l-0.2,0.3
			l-0.2,0.3l-0.2,0.3l-0.1,0.2l0,0.2l-0.1,0.2L58.2,64l0,0.3l0.1,0.2L58,64.8l0,0.2l0.1,0.1l-0.1,0.1l0,0.2v0.4L57.7,66v0.2
			l-0.1,0.2l0,0.2l0,0.2l0,0.2l0,0.1h-0.1l-0.1,0.1l-0.1,0.1l0,0.2l0,0.1l0,0.1l0,0.2l0,0.2v0.2l0,0l0,0.1l0,0.1l0.1,0l0,0.4v0.6
			l0,0.1l-0.1,0.3v0.4l0,0.3l0,0.2l0,0.2v0.4l0,0.4v0.4l0,0.2v0.3l0,0.2v1.6l0,0L57,75.2l0,0.3l0,0.3l-0.1,0.2l0,0.4l0,0.1v0.6
			l0,0.5c0,0.2,0,0.3,0,0.5l-0.1,0.3l0,0.1v0.1l-0.2,0.3l-0.1,0.3L56,79.8l-0.2,0.3l-0.1,0.1l-0.1,0.1l-0.4,0.4l-0.1,0.1l0,0.2h-0.2
			l-0.1,0.1l-0.1,0.1l-0.1,0.1l-0.1,0l-0.1,0.1l0,0H54l-0.1,0l-0.1,0l-0.1,0.1L53.3,82l-0.4,0.1l-0.1,0l-0.2,0.1l-0.3,0.1h-0.2l0,0
			h-0.1l-0.4,0l-0.3,0l-0.2-0.1l-0.2-0.1v-0.1h0l-0.1-0.1l0,0v0l-0.1-0.1l-0.1-0.1l-0.1-0.2l0-0.1l0-0.1l-0.1,0l0-0.1l0-0.2l0-0.2
			l0-0.1l0-0.4v-1.8l0-0.2l-0.1-0.2v-0.4l0.1-0.3v-0.4l0-0.4l0-0.2v-0.1l0-0.4l0,0v0l0-0.4l0-0.2l0-0.1l0.1-0.2v-0.2l0-0.2v-0.2
			l0-0.2l0-0.2l0-0.1V73l0-0.1l0-0.4l-0.1-0.2l0.1-0.1v-1.6L50,70l0.1-0.2v-0.1l0-0.1l0-0.1v-0.3l0-0.3v-0.4l0-0.5l0-0.4v-0.9l0-0.5
			l0-0.4l0-0.2l0-0.2c0-0.3,0-0.5,0-0.8c0-0.2,0.1-0.5,0-0.7v-0.3l0-0.2l0-0.2v-0.6c0-0.3,0-0.5,0-0.8c0-0.3,0.1-0.6,0.1-0.9
			c0.1-0.2,0.1-0.4,0.1-0.5l0.1-0.4v-0.2l0.1-0.4l0.1-0.4l0.1-0.3l0.1-0.1l0.1,0l0,0l0.2-0.3l0.3-0.3c0.2-0.2,0.4-0.3,0.6-0.5l0,0
			l0.1,0l0.1-0.1l0.1-0.1l0.2-0.1l0.2-0.1l0.2,0l0.1-0.1c0.1,0,0.3-0.1,0.5-0.2c0.2,0,0.3-0.1,0.5-0.1l0,0L55.6,56.2"/>
		<path id="Path_103" class="st0" d="M45.7,64.6c0,0.2-0.3,0.1-0.4,0.2l0,0.5c0,0.2,0.1,0.4,0.2,0.5l0.2,0.3l0.1,0l-0.1,0.2l0,0.3
			l0.1,0.3l-0.1,0.3c0,0.2-0.2,0.3-0.2,0.5l0,0.3l0.1,0.1v0.1l0,0.4c0,0.1-0.1,0.2,0,0.3l0,0.2l-0.1,0.1l0,0.4l-0.1,0.4l-0.1,0.4
			L44.9,71v0.4c0,0.3,0.1,0.6,0,0.8l-0.1,0.4c0,0.1,0,0.2,0,0.4v0.8l-0.1,0.1v0.2c0,0.2,0,0.4-0.1,0.6L44.5,75v1.3l-0.1,0.4
			l-0.1,0.2v0.2h-0.2v0.4L44,77.9v0.4l-0.1,0.4c0,0.1,0,0.3,0,0.5v0.2l0,0.2v0.4l0,0.2l0,0.2V81h0v0.3l0,0.1l-0.1,0.2l0,0.1l0,0.2
			c0,0.2,0,0.3-0.1,0.4c0.1,0.1,0,0.4,0.1,0.6v0.2l0,0.3L43.5,84l-0.1,0.2v0l0,0.2l0,0.2l0,0.4v0.2l-0.1,0.2l0,0.4L43,86.4v0.3
			l0.1,0.1c0.2,0,0.4-0.2,0.4,0.1l-0.1,0.3l0,0.1l-0.1,0l-0.2-0.2l-0.1,0.4l-0.3,0c-0.2,0-0.1,0-0.2,0.2c-0.2,0.2-0.3,0.3-0.5,0.4
			l-0.3,0.2L41,88.7L40.7,89c-0.2,0.1-0.3,0.2-0.5,0.3l-0.3,0.2l-0.1,0.1l-0.1,0.1l-0.4,0l-0.2,0.1h-0.2c-0.3,0-0.5-0.1-0.8-0.1
			l-0.3-0.1l-0.1-0.1l-0.1-0.1l-0.1-0.3L37,88.7l-0.1-0.3l0-0.4v-2.4c0-0.3,0.1-0.5,0.1-0.8v-0.4c0-0.1,0-0.3,0-0.4v-0.4l0-0.4
			c0-0.5,0.1-1,0.1-1.5c0-0.2,0-0.5,0-0.7l-0.1,0v-0.2c0-0.3,0.1-0.6,0.1-0.8c0-0.2,0.1-0.5,0.1-0.8l0-0.4l0.1-0.4
			c0-0.1-0.3-0.8,0-0.6c0.1-0.2,0-0.4,0-0.6l0,0c-0.1-0.2-0.1-0.4,0-0.6v-0.5c0.1-0.5,0.2-1.1,0.1-1.6V74l0-0.3c0-0.2,0-0.5,0-0.7
			l0-0.3c0-0.1,0.1-0.1,0.1-0.3c-0.1-0.1,0-0.8,0-1c0-0.3,0.1-0.5,0.1-0.8c0-0.3,0-0.6,0-1c0-0.3,0-0.6,0.1-0.9c0-0.3,0.2-0.5,0-0.8
			l0,0l0.1-0.6c0-0.2,0.1-0.4,0.2-0.5c0.2-0.5,0.4-0.9,0.6-1.4c0.1-0.2,0.3-0.5,0.4-0.6c0.1-0.1,0.3-0.4,0.5-0.5l0.3-0.3l0.1-0.1
			l0.2,0l0,0l0.4-0.2l0.4-0.3c0.4-0.3,0.9-0.5,1.4-0.6c0.3-0.1,0.6-0.2,0.8-0.1c0.1,0,0.3,0,0.5,0l0.3,0.1c0,0,0,0.1,0.3,0.3
			l0.2,0.3c0.1,0.2,0.2,0.4,0.2,0.5l0.1,0.3l0.1,0.2v0c-0.2,0-0.1,0.3,0,0.4C45.5,64.3,45.4,64.6,45.7,64.6"/>
		<path id="Path_104" class="st0" d="M48.5,48.9L48.5,48.9l-0.1,0.3l0,0l-0.1,0.1l0.1,0.1h-0.1v0.1l0,0.1l0,0.2L48,50.3l0,0.1h-0.1
			v0.1l0,0.1l-0.1,0.2L47.6,51l-0.2,0.1l-0.1,0.1l0,0.2l0,0l0,0.1l-0.2,0.2l-0.1,0.1L46.7,52l0,0.1l-0.2,0.1l-0.3,0.2l-0.1,0.1
			l-0.1,0l0,0l-0.1,0.1l-0.2,0l0,0l0,0l-0.1,0.1l-0.1,0.1l0,0l0,0l-0.1,0.1l-0.1,0.1l-0.2,0.2l-0.2,0.1l-0.1,0.1h-0.1v0L43.9,54
			l0,0.1h-0.1l-0.2,0L43.3,54V54l-0.1,0h-0.3l0,0l-0.2,0l-0.1-0.1l0.1-0.1l-0.2,0h-0.1l-0.1,0L42,53.6l-0.1-0.3l-0.1,0l0-0.1v0h0V53
			l-0.1-0.3v-0.2l-0.1-0.1l0-0.1l0-0.1l0,0l0,0l0-0.1l0-0.3v-0.3l0-0.1l0-0.1l0.1-0.2v-0.2l0,0v-0.1l0.1-0.1l0.1-0.2l0-0.2v-0.2
			l0.1-0.1l0.1-0.1c0.1-0.2,0.2-0.4,0.3-0.5l0.2-0.2l0.2-0.2l0.3-0.2l0.3-0.2c0.2-0.1,0.3-0.3,0.5-0.5l0.2-0.1l0.2-0.1l0.3-0.2
			l0.2,0l0.2-0.1l0.4-0.1h0.2l0-0.1h0.1l0.2,0h0.2l0.3,0l0,0l0,0l0.2,0h0.1l0,0l0.2,0v0l0.2,0.1l0,0.1v0.1l0.1,0.1v0.1l0,0l0,0.1
			l0,0.1l0.1,0.2l0.1,0.2v0.2L48.5,48.9"/>
		<path id="Path_105" class="st0" d="M31.5,70.1L31.5,70.1l0.1-0.1l0-0.2l0-0.1l0-0.1v-0.3l0.1-0.2l0-0.2v-0.2l0-0.1v-0.1l-0.1-0.1
			v-0.1c0-0.3,0.1-0.6,0.2-1v-0.2l0-0.1H32l0.2-0.1l0.1-0.2v-0.2l-0.1,0h0V66l0.1-0.1l0.1-0.2l-0.1-0.1l0-0.1l0-0.2l0.1-0.2l0-0.1
			v-0.1l-0.1-0.1l0-0.2l0-0.2l0-0.2l0.1-0.3l0-0.1l0-0.1l0-0.1l0-0.3v-0.2l0,0l0-0.1l0-0.1l0-0.2l0.1-0.2v-0.2l0-0.2l0-0.2l0.1-0.2
			l0-0.2v-0.3l0-0.1l0-0.1v-0.2l0-0.1v-0.1l0-0.2l0.1-0.5l0.1-0.2l0.1-0.2l-0.1-0.1l0.1-0.1l0,0l0,0l0-0.3l0-0.1v-0.1L34,58v-0.1
			l0-0.2l0-0.1l0-0.1v-0.1h0v0l0-0.2v-0.1l0.1,0v-0.2l0,0v-0.1l0-0.1l0-0.1l0-0.1v-0.2l0-0.2l0-0.2l0-0.2l0,0v-0.1l0-0.1v-0.1l0-0.1
			l0-0.1l0-0.1l0-0.1v0l0-0.1l0.1-0.1l0-0.1h0v-0.2l0.1-0.1l0-0.1l0-0.1v-0.1l0-0.4l0.1-0.1l0-0.2l0-0.2l0.3-0.2V52l0-0.1v-0.2
			l0-0.2l0.1-0.2v-0.2l0,0l0-0.2l0-0.2l0-0.2l0.1-0.2l0.1-0.1l0.1,0l0.1,0l0.1-0.2l0-0.1v-0.1l0-0.1l0-0.1l0-0.1l0-0.1v-0.1l0-0.2
			v-0.2l0.1-0.2l0-0.1l0-0.1l0-0.2l0-0.2l0-0.1v-0.1l0-0.2v-0.3l0-0.1v-0.2l0.1-0.1l0-0.1l0-0.2v-0.2l0.1-0.1l-0.2-0.1v-0.2
			c0-0.2,0.1-0.3,0.2-0.5l0.2-0.5c0.1-0.2,0.2-0.4,0.2-0.5v-0.1l0-0.1l0.1-0.3l0.1-0.4l0-0.2l0-0.2l0.1-0.2v-0.1l0.1-0.1l0.1-0.2
			l0.1-0.4l0.1,0l0-0.1l0-0.1l-0.2-0.2v-0.3l0-0.1l0-0.1l0.1-0.2l0-0.3v-0.1l0.1-0.1l0.1-0.1l0-0.2v-0.1l0-0.1l0-0.2l0.1-0.2v-0.2
			l0.1-0.2l0-0.1l0.1,0l0,0l0-0.1l0-0.3l0.1-0.3l0,0l0,0l0-0.1l0-0.3l0.1-0.2l0.1-0.2l0.1-0.2v-0.1l0-0.1l0-0.1l0-0.1l0.1-0.1l0-0.1
			l0-0.1l0.1-0.1l0-0.1l0.1,0v-0.1l0-0.1l0.1-0.1v-0.4l0-0.2l0-0.1v-0.1l0.1-0.1l0-0.2l0-0.1l0-0.1l0.1-0.2l0-0.1l0.1,0l0.1,0l0,0v0
			l0-0.1v-0.3h0v0l0.1,0v-0.4l0,0l0-0.2v-0.2l0.1-0.2l0,0V30l0.1-0.2l0-0.1l0.1-0.2v-0.1l0.1-0.2L43,29c0-0.2,0.3-0.3,0.3-0.5
			l0.1-0.3l0-0.1l0-0.1l0.2-0.2l0.1-0.3l0.1-0.1l0,0l0,0l0-0.1l0,0v-0.2l0-0.1l0-0.2V26l0.1-0.3l0.1-0.3l0.1-0.4l0.1-0.1l0-0.2
			l0.2-0.3v-0.1l0.1,0l0-0.2l0.1-0.2v-0.1l0,0l0.1-0.3l0-0.1l0-0.1l0.1,0l0-0.1l0.1-0.2v-0.1l0.2-0.5c0.1-0.3,0.3-0.6,0.4-1
			c0.1-0.2,0.2-0.4,0.3-0.5l0-0.1l0.1-0.1l0.1-0.1l0.1-0.3l0-0.1l0,0l0-0.2l0.1-0.3l0.2-0.4l0-0.1v-0.1l0.1-0.2l0-0.1l0,0l0.1-0.2
			l0-0.2l0.1-0.3l0-0.1l0.1-0.3l0.2-0.3l0.1-0.1l0.1-0.1c0-0.1,0-0.5,0.1-0.4l0-0.2l0.1-0.1l0.1-0.3l0,0l0.1-0.1l0-0.1l0.2-0.2
			l0.2-0.2l0.1-0.1l0.1-0.3c0.1-0.2,0.3-0.3,0.4-0.5l0.1-0.1h0.1l0.1-0.1l0.1-0.2l0.1-0.2l0.1-0.1l0.1-0.2l0.1-0.1l0.1-0.1l0-0.1
			v-0.1l0-0.1l0.1-0.1l0-0.1l0.1,0l0-0.1l0.1,0l0-0.1l0.1,0l0,0l0,0l0.1-0.2h0.2l0.1-0.2l0.1,0l0-0.1V11l0.1,0l0,0.1l0,0.1v0l0,0
			l0.1,0l0.1-0.1l0.1-0.1v-0.3l0.1,0v-0.1l0,0l0,0.1h0.1v-0.1h0l0-0.1l0.1,0h0.1l0.1,0v0h0v0h0l0-0.1l0-0.1V10l0-0.1h0.1l0-0.1V9.8
			l0-0.2V9.3l0.1-0.1h0l0,0l0.1,0l0-0.2l0-0.1l0.1,0l0-0.1v0h0l0-0.1l0,0v0l0,0l0-0.1l0.1-0.1l0.1-0.2l0-0.1l0.1-0.1h0l0-0.1
			l0.1-0.2l0-0.2l0-0.1l0-0.1V6.8l0-0.1l0-0.2l0-0.2l0-0.1l0-0.1h0l0-0.1l0-0.1V5.1l0-0.2l0-0.2V4.6l-0.1-0.1V4.2L55.7,4l-0.1-0.1
			l0-0.1V3.6l-0.1-0.2V3.3l0-0.1l-0.1-0.2l0-0.1l-0.1-0.1l0-0.1L55,2.3V2.2l-0.1-0.1l-0.3-0.4l-0.2-0.1l-0.1,0l0,0l0-0.1l-0.1,0
			l0-0.1l0,0l0,0l-0.1-0.1l0-0.1h-0.1l-0.2-0.1l-0.1,0l0,0l-0.2-0.1l-0.3-0.1l-0.2-0.1l-0.2,0h-0.1l0,0l-0.2-0.1l-0.3,0l-0.3,0L51,0
			l-0.3,0h-0.2l-0.1,0l-0.1,0l-0.3,0l-0.4,0l-0.3,0.1l-0.3,0.1l-0.2,0.1c-0.5,0.3-0.9,0.5-1.3,0.9l-0.3,0.3l0,0.1h-0.1l0,0.2
			l-0.2,0.2h-0.1l-0.1,0.1l-0.1,0.2l-0.3,0.3l-0.3,0.3c-0.2,0.2-0.3,0.4-0.4,0.6L45,4.2c-0.2,0-0.3,0.4-0.4,0.6
			c-0.1,0.2-0.2,0.4-0.3,0.6c-0.2,0.4-0.3,0.8-0.5,1.3c-0.1,0.3-0.2,0.5-0.3,0.7c-0.1,0.2-0.2,0.5-0.3,0.7c0,0.3-0.1,0.6-0.3,0.8
			c-0.1,0.2-0.2,0.5-0.3,0.8c-0.2,0.5-0.4,0.9-0.6,1.4c-0.1,0.2-0.2,0.5-0.3,0.8c-0.1,0.2-0.1,0.5-0.2,0.7c-0.2,0.5-0.3,1-0.5,1.5
			c-0.1,0.2-0.2,0.3-0.2,0.5c0,0.2-0.1,0.4-0.2,0.6c-0.1,0.4-0.3,0.8-0.4,1.1c-0.2,0.4-0.3,0.8-0.4,1.2c-0.2,0.5-0.4,1-0.6,1.6
			c-0.1,0.2-0.2,0.4-0.3,0.7c-0.1,0.3-0.1,0.5-0.2,0.7c-0.1,0.2-0.2,0.6-0.3,0.8c-0.1,0.3-0.2,0.7-0.3,1.1c-0.2,0.4-0.3,0.8-0.4,1.1
			c-0.1,0.5-0.3,1-0.5,1.5c-0.5,1.2-0.9,2.4-1.2,3.7l-0.1,0.3l-0.1,0.3l-0.2,0.3l-0.1,0.3c-0.1,0.3-0.2,0.5-0.2,0.8
			c-0.1,0.4-0.2,0.7-0.3,1c0,0.2-0.1,0.3-0.1,0.5c-0.2,0.3-0.3,0.7-0.4,1c0,0.2-0.2,0.4-0.2,0.7c-0.1,0.2-0.1,0.5-0.2,0.7
			c0,0.2-0.2,0.4-0.1,0.6c-0.1,0.1-0.2,0.5-0.2,0.7c-0.1,0.2,0,0.5-0.1,0.7c-0.1,0.2-0.3,0.4-0.3,0.7c0,0.3,0,0.5,0,0.8
			c0,0.2-0.1,0.2-0.2,0.4l-0.1,0.5c0,0.2,0,0.3,0,0.4c-0.1,0.2-0.2,0.3-0.2,0.5c-0.2,0.7-0.3,1.3-0.6,2c-0.1,0.3-0.1,0.7-0.2,1
			s-0.2,0.6-0.3,1c-0.2,0.7-0.3,1.3-0.4,2c-0.1,0.2-0.1,0.5-0.1,0.7v0.3l-0.2,0.4c0,0.2,0,0.3-0.1,0.5c-0.1,0.3-0.2,0.6-0.3,0.9
			c-0.1,0.7-0.4,1.3-0.5,2c-0.1,0.5-0.3,1-0.4,1.6c0,0.2,0,0.5-0.1,0.7c-0.1,0.3-0.1,0.6-0.2,0.8c0,0.2-0.1,0.4-0.1,0.5l0,0.3
			l-0.1,0.2c0,0.1,0,0.3,0,0.4l-0.1,0.4c-0.1,0.3-0.1,0.7-0.2,1c-0.1,0.5-0.2,1-0.4,1.5c0,0.2-0.1,0.5-0.1,0.8
			c-0.1,0.5-0.2,1-0.3,1.5c0,0.3-0.1,0.5-0.2,0.8c0,0.2-0.1,0.5-0.1,0.7c0,0.2-0.2,0.5-0.1,0.7C26.1,63.8,26,64,26,64.2
			c0,0.2,0,0.5-0.1,0.7c-0.1,0.3-0.2,0.7-0.3,1.1c0,0.3-0.1,0.6-0.2,0.9c-0.1,0.2-0.1,0.5-0.1,0.7c-0.1,0.4-0.1,0.8-0.1,1.1
			c-0.1,0.8-0.2,1.5-0.4,2.3c-0.1,0.3-0.1,0.7-0.1,1c0,0.5-0.2,1-0.3,1.5c0,0.2-0.1,0.3-0.1,0.5c0,0.4-0.1,0.8-0.1,1.1
			c-0.1,0.7-0.2,1.5-0.4,2.2c-0.1,0.3-0.1,0.5-0.1,0.8c-0.1,0.9-0.3,1.9-0.4,2.9c0,0.4-0.1,0.9-0.2,1.4c0,0.2,0,0.5,0,0.7
			c0,0.2,0,0.3,0,0.5l-0.1,0.1v0.2c-0.1,0.3-0.1,0.6-0.1,0.9l-0.1,0l0,0.3l-0.1,0.2l-0.1-0.2c-0.1-0.1-0.1-0.1-0.3-0.1l-0.1-0.2
			v-0.2c0.1-0.2,0.1-0.4,0-0.6L21.7,84l0-0.2c0-0.3-0.2-0.2-0.4-0.3l0.1-0.2l0-0.3v-1c-0.1-0.1-0.1-0.3-0.1-0.4L21.2,81l0.1-0.2
			v-0.3c0-0.2,0.2-0.2,0.1-0.4c-0.1-0.5,0-0.3,0-0.5l-0.1-0.4L21.1,79L21,78.8l-0.1-0.1l0.1,0l-0.1,0l0,0l-0.1-0.1l0-0.1v-0.1
			l0.2-0.2h0l0,0l-0.1,0l-0.1,0v-0.7l0.1-0.2l0-0.1v-0.1l0-0.2l0-0.1l0-0.2l0,0l0-0.1l0-0.1v-0.3l-0.1-0.2l0-0.3l-0.1-0.1l0-0.2
			l0-0.1l0-0.1l0-0.2l-0.1-0.1V74l-0.1-0.4v-0.9l0-0.1l0-0.2l-0.1-0.1l-0.1-0.2L20,71.5l0-0.1l0-0.2l0-0.2l0-0.1l0.2,0l0-0.1
			l-0.2-0.3L19.7,70l0-0.2l0-0.3v-0.3l-0.1-0.2l0-0.2l-0.1-0.1l-0.1-0.4l0-0.1l-0.1-0.1v-0.1l-0.1,0v-0.1l0-0.2l0-0.2L19,67
			l-0.1-0.1v-0.5l0-0.2l0-0.3v-0.2l-0.1,0c0-0.3-0.1-0.6-0.1-0.9l0-0.1l-0.1-0.2l-0.1-0.4l0-0.3l0-0.3l0-0.1l0.1-0.1l-0.1,0l0-0.1
			l0-0.1l0-0.1l0-0.2l0-0.1l0,0l0,0v-0.1l0-0.1v0l0,0v-0.1l0-0.1l0-0.1l0-0.1l0.1-0.2l0.1-0.1L18.1,61v-0.1l0-0.1v-0.1L18,60.5
			l0.1-0.1l0-0.1l0.1-0.1L18,60.1L17.8,60v-0.3l0.1-0.2l0-0.1l-0.1-0.1V59l0.1,0l-0.1,0l-0.2,0l0,0l0-0.1l0.1,0l0-0.1l-0.1,0l0-0.2
			h0.1l0-0.1l-0.1-0.1l-0.1-0.1l-0.1-0.3l0-0.1l0-0.1l-0.1-0.2l0-0.3v-0.1l0-0.1v-0.1l0-0.1v-0.1L17,55.8l0-0.2l0-0.3l0-0.3v-0.8
			l-0.1-0.1v-0.3l0,0l0-0.1l0-0.3L16.6,53v-0.1l0-0.1v-0.2l0-0.1l0-0.1v-0.4l0-0.2v-0.1l0-0.1l0-0.3l0-0.3v-0.2l0-0.1l0-0.3v-0.1
			l0-0.1C16,49.5,16,49.3,16,49.1l-0.1-0.7l-0.1-0.3c0-0.2-0.1-0.4-0.2-0.6l-0.1-0.2l0-0.1l0-0.1l0-0.1l-0.1-0.2l0-0.1L15,46.4
			l-0.1-0.1l-0.1-0.1L14.5,46l-0.2-0.1l-0.1-0.1l-0.3-0.2l-0.1-0.1l-0.3-0.1l-0.1,0l-0.4-0.1l-0.3,0l-0.1-0.1H12l-0.3,0l-0.3,0.1
			l-0.1,0l-0.1,0.1l-0.2,0l0,0l-0.2,0l-0.2,0.1L10.1,46l-0.3,0.3c-0.1,0.2-0.3,0.3-0.3,0.5c-0.2,0.2-0.3,0.5-0.3,0.7
			c-0.1,0.3-0.2,0.5-0.3,0.8l0,0.2l-0.1,0.2l-0.1,0.4l-0.1,0.1l0,0.1l-0.1,0.3l0,0.1v0.1l0,0v0c-0.1,0.3-0.2,0.6-0.3,0.9l-0.1,0.2
			l0,0.2L7.5,52l-0.1,0.3c-0.2,0.5-0.2,1-0.4,1.5l-0.2,0.4c-0.1,0.2-0.1,0.3-0.2,0.5c0,0.2-0.1,0.3-0.1,0.5c0,0.2-0.1,0.3-0.2,0.4
			C6.1,55.9,6,56.2,6,56.4c0,0.1-0.1,0.3-0.2,0.5c0,0.1,0,0.2,0,0.4c0,0.2-0.1,0.4-0.1,0.5c-0.1,0.3-0.2,0.7-0.3,1
			c-0.1,0.3-0.2,0.6-0.3,0.8c0,0.2-0.1,0.3-0.2,0.4l-0.1,0.4L4.5,61c0,0.2,0,0.3-0.1,0.5c-0.1,0.3-0.2,0.6-0.3,1
			c0,0.3-0.3,0.5-0.4,0.8c-0.1,0.2-0.1,0.4-0.1,0.5c0,0.2,0,0.3,0,0.5S3.4,64.9,3.3,65c0,0-0.5,0.2-0.2,0.4C3,65.6,2.8,65.6,3,65.8
			l-0.2,0.3c0,0.2,0,0.3,0,0.5c-0.1,0.4-0.3,0.8-0.5,1.2c-0.1,0.5-0.4,0.9-0.6,1.4h0.1l-0.1,0.4L1.4,70l0,0.2l-0.1,0.2L1,70.8l0,0.4
			l-0.1,0.4c-0.1,0.3-0.2,0.5-0.3,0.8c-0.1,0.3-0.2,0.5-0.3,0.8C0.1,73.8,0,74.4,0,74.9c0,0.3,0.1,0.6,0.2,0.8
			c0.3,0.4,0.6,0.8,1,1.1c0.2,0.1,0.4,0.2,0.6,0.2l0.3,0.1h0.6l0.2,0l0.4,0h0.1L3.7,77h0.1L4,76.9l0.3-0.1c0.2-0.1,0.4-0.2,0.5-0.3
			l0.2-0.2l0.1-0.1L5.3,76h0.3l0-0.1l0-0.4l0.1-0.2L5.8,75v-0.1l0-0.1L6,74.6l0-0.2l0.1-0.1V74l0.2-0.3l0.1-0.1l0-0.1l0.3-0.2l0-0.2
			l0.1-0.1v-0.2l0-0.2L7,72l0.2-0.2l0.2-0.1l-0.2,0v-0.2l0.1,0l0-0.1v-0.1l0.1,0v-0.1l0,0l0,0v-0.1l0.1-0.1v0l0,0l0,0l0-0.1l0.1-0.1
			v-0.1l0-0.1v-0.2l0.1-0.1v-0.1l0.1,0v0H7.8l0-0.1l0,0h0l0.1,0v-0.1l0,0l0.1,0l0-0.1v-0.3l0.1,0l0-0.1l-0.1,0v-0.1l0-0.2h0.1l0-0.1
			l0.1-0.2l0-0.1l0.1,0l0-0.1l-0.1,0v-0.1l0-0.2l0,0V67l0-0.1l0-0.1l0,0l0,0l0,0h0v-0.1l-0.1,0v0l0-0.1l0,0l0.1,0l0-0.1L9.2,66
			l0.1-0.2l-0.1,0l0-0.1h0.1v-0.1l0,0v-0.1l0-0.2l0,0.1v-0.1l0-0.1v-0.1l0.1,0.1l0,0l0,0h0.2l0,0.1l0,0l-0.1-0.1v0H9.6v-0.2l0,0
			v-0.1l0.2,0.1l0-0.1l0,0v0h0l0,0v-0.2l0,0l0,0l0.1,0l0-0.1v-0.1l0,0v-0.1l0.1-0.1v-0.2l0.1-0.1h0.2l0,0.1h0.1l0.1,0l0.1,0l0,0
			l0,0.1l0.1,0.1h0.1l0,0.1v0.1l0,0l0,0.1l0,0.2l0,0l0,0.1l0.1-0.1l0.2-0.1l0.1,0.1l0,0.1l-0.1,0l0,0.1v0.2l0,0.1l0.2,0.1l0,0v0h0
			l0,0l0,0.1l0,0l0,0.1l0,0.2l0.1,0.1v0.2c-0.1,0.1-0.1,0.3,0,0.4l0.2,0.2h0.1v0.1l0,0.1v0.1h0.1l0,0.1l0,0.4l-0.1,0.3l0.1-0.1
			l0,0.4l0,0.1l0,0.2l0,0.4l0,0.4v0.3l0,0.2l0.1,0.4l0,0.4l0,0.2l0,0.1l0,0v0.1l0,0.1l0,0.3l0,0.3l0,0.3l0,0.3l0,0.2v0.5l0,0.1v0.7
			l0,0.1l0,0.1l0.2,0.3l0,0.1l0.1,0.1v0.2c0,0.2,0,0.3,0,0.5l0,0.4l0,0.2l0,0.2l0,0.2l0,0.2l0.1,0.4l0.1,0.9v0.2l0,0.2v0.2l0,0.2
			l0,0.4l0,0.2l0,0.4l0,0.2v0.1l0,0.1v0.2l0,0.4l0,0.2l0,0.2V82l0,0.2l0,0.1l0,0v0.1l0,0.2l0.1,0.4l0,0.4l0,0.3v0.2l0,0.2l0,0.2v0.3
			l0.1,0.3l0,0.2l0,0.2l0.1,0.2v0.2l0,0.2v0.2l0,0.1l0,0.1l0,0.1l0,0.3v0.1l0,0.1v0.3l0.1,0.2v0.2l0,0v0.1l0,0.1v0.3h0v0.8l0,0v0.1
			l0,0.3v0.3l0,0.1v0.3l0,0.1v0.3l0.1,0.1v0.4l0.1,0.1V92l0,0.2l0,0.1l0,0l0,0.2v0.2l0,0.1l0.1,0.3v0.2l0,0v0.3l0,0.2v0.1l0,0.1
			l0,0.1v0.1l0,0.2l0,0.2l0,0.2v0.2l0,0.1l0,0.1v0.2l0.1,0l0.1,0l0.1,0.2l0,0.1v0.1l0,0.1l0,0.1l-0.1,0.2l-0.1,0l-0.1,0v0l0,0.1
			l0.1,0h0.1l0.1,0l0.1,0l0,0l0,0.1l0,0.2v0.2l0,0.2l0,0.2l0,0.1l0,0.1v0.5l-0.1,0l0.1,0.1l0,0.1l0,0.1v0.1l0,0.1v0.1l0,0.1v0.1
			l0,0.3v0.1l-0.1,0.1v0.2l0.1,0l0,0.1l0.1,0.2v0.2l0,0.1v0.1l0,0.1l0,0.3l0,0.3l0,0.2v0.3h0l-0.1,0.1v0.3l0,0.1v0.1l0,0.1l0,0.4
			l0.1,0.4v0.2l0,0.2l0,0.2v0.1l0,0.1v0.1l0,0.1l0,0.2l0,0.2v0.3l0,0.2v0.1l0,0l0,0l0,0v0.1l0,0.1l0.1,0.1v0.1h0v0.1l0,0.2l0,0.1
			l0,0.1l0,0.2l0,0.2v0.1l0,0l0,0.1l0,0.2l0,0.1l0,0.1l0,0.1l0,0.1v0l0,0l0,0.1l0,0.2v0.1l0,0.1v0.2l0.1,0.2v0.2l0,0.1l0.1,0.2v0.1
			l0,0.2l0.1,0.1l0,0.1l0.1,0.2l0.1,0l0.1,0.2l0.1,0.1l0,0l0,0l0,0.1l0.1,0.1l0.1,0.1l0.1,0l0,0l0.1,0.1l0.2,0l0.3,0.1l0.1,0l0.2,0
			l0.2,0l0.1,0h0.4l0.1,0h0.4l0.3-0.1l0.5-0.1l0,0v-0.1h0.1l0.1-0.1l0.1,0l0.1,0l0.1,0l0.2-0.1l0.2-0.1l0.1-0.1l0.1-0.1l0-0.1l0,0
			l0-0.1l0.1-0.1l0-0.1l0-0.1l0-0.1l0-0.2l0.1-0.2l0-0.2l0-0.1l0-0.1l0-0.2l0-0.1v-0.1l0.1-0.2V109l0.1-0.4l0.1-0.1l-0.1,0v-0.1
			l0-0.2l0-0.2v-0.2l0.1,0v-0.3l0-0.2l0-0.3l0-0.2v-0.2l0-0.3v-0.6l0.1,0.2l0-0.3l0-0.1v-0.1l0-0.1l0-0.1v-0.1l0-0.3l0-0.1v-0.1
			l0-0.1v-0.1l0,0v-0.1l0-0.1l0,0l0-0.1V103l0-0.1v-0.1l0-0.1v-0.3l0-0.3v-0.2l0-0.2v0l0,0v-0.3l0-0.2l0-0.1l0-0.2v-0.4l0-0.1l0-0.1
			v-0.1l0-0.1v-0.5l0-0.1l0,0h0v-0.3l0-0.2v-0.2l0-0.1l0-0.3l0-0.2l0-0.2l0,0v-0.2l0-0.1v-0.4l0-0.1l0,0v-0.5l0-0.1v0l0-0.2v-0.8h0
			l0-0.1l0-0.1v-0.5l0-0.2l0-0.3v-0.1l0-0.1l0-0.3l0-0.1v-0.1l0-0.3v-0.3l0,0l0,0v0l0-0.2v-0.2l0-0.2l0-0.1V91l0-0.1v-0.2h0v-0.4
			l0-0.1v-0.3l0.1-0.2l0-0.3v-0.1l0-0.1l0-0.1l0-0.1l0.1-0.1v-0.1l0,0v-0.2l0-0.1l0-0.1v-0.5l0,0h0v-0.1l0,0l0.1-0.1l0,0h0.2l0.1,0
			l0,0v0l0.1-0.1l0-0.1l0-0.1v-0.1l0,0l0-0.1l-0.1,0l-0.1-0.2v-0.1l0-0.1v-0.1l0-0.1l0-0.1l0-0.1l0.1-0.2l0-0.2v-0.3l0-0.2l0-0.2
			l0-0.2v-0.2l0-0.1v-0.1l0-0.2v-0.2l0-0.1V83l0.1-0.2h0v0l0,0l0-0.2h0v0l0,0l0.1-0.1l0-0.2l0.1-0.1l0-0.2v-0.2h0v0h0l0.1,0v-0.5
			l0-0.2l0,0v-0.2l-0.1-0.1l0-0.1v-0.1l0,0v-0.1l0,0v-0.2l-0.1,0l-0.2-0.1l0-0.2v-0.1l0-0.1v-0.1h0v0l0-0.2v-0.5l0-0.1V78l0,0v0l0,0
			l0-0.1l0-0.1l0-0.1v-0.1l0-0.1v-0.2l0-0.2l0.1,0l0-0.1v-0.2l0-0.2v-0.2l0-0.1l0-0.1l0,0h0.1l-0.1-0.1v-0.1h0v0l0-0.1l0-0.1
			l-0.1-0.1v-0.1l0-0.1V75l0.1-0.1l0-0.1h0l0,0l0-0.4V74l0,0l0-0.2v-0.1l0-0.2l0.1-0.1l-0.1-0.1l0-0.2l0-0.2l0.1-0.4l0.1-0.2v-0.1
			l0,0v-0.4l0.1-0.1v-0.1l0-0.1l0-0.1V71h0l0,0v-0.2l0-0.1v-0.2l0,0v0h0v0h0.1l0,0L31.5,70.1"/>
	</g>
	<g id="Group_37" transform="translate(54.917 47.416)">
		<path id="Path_106" class="st1" d="M44.2,50.5c-6,0-10.9-4.9-10.9-10.9c0-6,4.9-10.9,10.9-10.9c0,0,0,0,0,0h37.6
			c6,0,10.9,4.9,10.9,10.9c0,6-4.9,10.9-10.9,10.9c0,0,0,0,0,0H44.2z"/>
		<path id="Path_107" class="st2" d="M41.4,37.5c0-0.4,0.4-0.8,0.8-0.8c0.4,0,0.8,0.4,0.8,0.8c0,0,0,0,0,0v0.3
			c0.4-0.7,1.2-1.2,2.1-1.2c0.9,0,1.6,0.4,2,1.2c0.5-0.8,1.4-1.2,2.3-1.2c1.3-0.1,2.3,0.9,2.4,2.1c0,0.1,0,0.3,0,0.4v3.6
			c0,0.4-0.4,0.8-0.8,0.8c-0.4,0-0.8-0.4-0.8-0.8v-3.1c0-1.1-0.5-1.6-1.4-1.6c-0.8,0-1.4,0.6-1.4,1.7v3.1c0,0.4-0.4,0.8-0.8,0.8
			c-0.4,0-0.8-0.4-0.8-0.8c0,0,0,0,0,0v-3.2c0-1-0.5-1.6-1.4-1.6c-0.8,0-1.4,0.6-1.4,1.7v3.1c0,0.4-0.4,0.8-0.8,0.8
			c-0.4,0-0.8-0.4-0.8-0.8L41.4,37.5L41.4,37.5z"/>
		<path id="Path_108" class="st2" d="M57,36.6c-1.9-0.1-3.6,1.5-3.6,3.4c0,0,0,0.1,0,0.1v0c0,2,1.6,3.6,3.6,3.6c2,0,3.6-1.6,3.6-3.6
			l0,0c0-2-1.6-3.5-3.5-3.6C57,36.6,57,36.6,57,36.6 M59,40.2c0.1,1.1-0.8,2.1-1.9,2.1c-0.1,0-0.1,0-0.2,0c-1.2,0-2.1-1-2.1-2.1
			c0,0,0,0,0,0l0,0C54.8,39,55.7,38,56.8,38c0.1,0,0.1,0,0.2,0C58.1,38,59,38.9,59,40.2C59,40.1,59,40.1,59,40.2z"/>
		<path id="Path_109" class="st2" d="M66.1,36.6c-0.9,0-1.8,0.5-2.3,1.3v-3c0-0.4-0.4-0.8-0.8-0.8c-0.4,0-0.8,0.4-0.8,0.8v7.9
			c0,0.4,0.4,0.8,0.8,0.8c0.4,0,0.8-0.4,0.8-0.8c0,0,0,0,0,0v-0.3c0.5,0.8,1.4,1.2,2.3,1.2c1.8-0.1,3.2-1.6,3.1-3.4
			c0-0.1,0-0.1,0-0.2v0c0.1-1.8-1.2-3.3-3-3.5C66.2,36.6,66.2,36.6,66.1,36.6 M67.7,40.2c0.1,1.1-0.7,2.1-1.8,2.2c0,0-0.1,0-0.1,0
			c-1.1,0-2-1-2-2.2c0,0,0,0,0,0v0c-0.1-1.1,0.7-2.1,1.7-2.2c1.1-0.1,2.1,0.7,2.2,1.7C67.7,39.8,67.7,40,67.7,40.2L67.7,40.2z"/>
		<path id="Path_110" class="st2" d="M71.1,37.4c0-0.4,0.4-0.8,0.8-0.8c0.4,0,0.8,0.4,0.8,0.8c0,0,0,0,0,0v5.3
			c0,0.4-0.4,0.8-0.8,0.8c-0.4,0-0.8-0.4-0.8-0.8c0,0,0,0,0,0V37.4z"/>
		<path id="Path_111" class="st2" d="M74.8,34.9c0-0.4,0.4-0.8,0.8-0.8c0.4,0,0.8,0.4,0.8,0.8v7.9c0,0.4-0.4,0.8-0.8,0.8
			c-0.4,0-0.8-0.4-0.8-0.8c0,0,0,0,0,0V34.9z"/>
		<path id="Path_112" class="st2" d="M84.6,40c0.1-1.7-1.3-3.2-3-3.3c-0.1,0-0.1,0-0.2,0c-1.9,0-3.3,1.6-3.3,3.4c0,0,0,0.1,0,0.1
			l0,0c-0.1,1.9,1.4,3.4,3.3,3.5c0.1,0,0.1,0,0.2,0c0.9,0,1.8-0.3,2.4-0.9c0.1-0.1,0.2-0.3,0.2-0.5c0-0.3-0.2-0.6-0.6-0.6
			c0,0,0,0,0,0c-0.1,0-0.3,0-0.4,0.1c-0.4,0.4-1,0.6-1.6,0.6c-1,0-1.9-0.7-1.9-1.7h4.3c0.4,0,0.7-0.2,0.7-0.6
			C84.6,40,84.6,40,84.6,40 M79.6,39.7c0-1,0.8-1.7,1.7-1.8c1,0,1.7,0.8,1.7,1.8H79.6z"/>
		<path id="Path_113" class="st2" d="M72.7,35c0,0.5-0.4,0.8-0.8,0.8S71,35.4,71,35c0-0.5,0.4-0.8,0.8-0.8
			C72.3,34.1,72.6,34.4,72.7,35C72.7,34.9,72.7,34.9,72.7,35"/>
	</g>
</g>
</svg>
