<svg width="704" height="484" viewBox="0 0 704 484" fill="none" xmlns="http://www.w3.org/2000/svg">
<g id="GCC-MAP">
<g id="Map">
<g id="MAIN MAP">
<path id="OMAN-1" fill-rule="evenodd" clip-rule="evenodd" d="M586.5 236.6C586.3 236.6 586.1 236.5 586 236.4L582.3 232.3C582.1 232.1 582.1 231.8 582.2 231.5C582.3 231.2 582.6 231.1 582.8 231.1H584.9C584.9 230.8 584.8 230.2 584.8 229.8L582.9 228.6L579.4 230.6C579.6 233.1 580 237.8 580 238.1C580 238.5 579.8 238.7 579.2 239.4C579 239.7 578.5 240.3 578.4 240.5C578.5 241.1 579.4 244.7 580.1 247.8C580.2 248 580.1 248.2 579.9 248.4L578.7 249.7C580.1 249.8 582.1 250 582.7 250.1C583.3 250.2 583.8 251 584 251.5C584.4 252.4 585.3 255.7 584.8 256.4C584.6 256.7 584.4 257 576.3 257C574.3 257.8 572.3 258.8 570.5 259.9C571.6 264.1 572.6 268.9 572.3 269.8C572 270.7 564.9 282.1 563.2 284.9V296.2C571.3 309.4 575.4 316.3 575.4 317.1C575.4 317.5 557.5 375.3 556.4 376.1C555.7 376.6 500.9 396.2 476.6 404.9C478.9 410.2 494.2 444.2 494.8 445.5C495.2 446.8 495.4 448.3 495.4 449.7C495.4 450.6 495.5 451.5 495.7 452.4C496.3 452.5 497 452.5 497.6 452.5C497.9 452.5 498.2 452.6 498.3 452.9L505.8 471C506.5 470.6 507.2 470.2 507.9 469.8C511 468.5 514.3 467.9 517.6 468.1C518.3 468.2 519 468 519.6 467.8C519.9 467.5 520.3 467.3 520.6 466.9C521.6 466 523 465.8 524.2 465.3C526 464.5 528.4 465.1 529.5 463.5C529.7 463.1 529.9 462.7 530.2 462.3C531 461.3 532.6 461.9 534 461.9C535 461.7 536 461.4 537 461C537.9 460.8 538.8 460.7 539.8 460.8C542 460.8 544.4 460.9 546.6 460.9C547 460.9 547.4 461 547.7 461.3C547.8 461.5 547.7 461.8 547.8 462.2C547.9 462.7 548.4 463 549 463.1C551.5 463.6 554.1 463.3 556.3 462.1C558.5 461 560.5 459.4 562.1 457.5C562.5 457 562.9 456.5 563.1 455.9C563.3 454.9 563.1 453.9 563.6 453.1C563.8 452.8 564.1 452.6 564.3 452.2C564.7 451.6 564.7 450.8 564.4 450.2C564 449.5 563.5 448.9 563 448.4C563 446.7 563.3 444.8 564.8 443.8C565.3 443.5 566 443.3 566.5 442.9C567 442.5 567.6 442 567.5 441.5C567.5 441.2 567.3 440.9 567.4 440.5C567.4 440 567.9 439.5 568.4 439.2C570 437.9 571.9 436.8 573.9 436.1C575.5 435.7 577.2 435.5 578.9 435.6C581.9 435.5 584.7 435.5 587.7 435.4C589 435.3 590.3 435.5 591.5 436.2C592.8 434.9 594.2 433.7 595.7 432.7C597.3 431.7 598.4 430.2 599 428.4L599.3 426.5C599.5 425.8 599.8 425.2 600.1 424.6C601.3 422 601.2 419.1 601.2 416.2C603.9 415.3 605 412.2 607.4 410.8C608.8 409.9 610.6 409.7 612.2 409.2C615.1 408.3 617.6 406.7 620.5 406.2C624.1 405.4 627.9 406.5 631.5 405.6C632.2 405.4 632.8 405 633.2 404.4C633.5 403.5 632.9 402.7 632.5 401.9C630.6 399.1 630.2 395.6 631.5 392.5C632.1 391 630.3 389.5 630.3 387.9C630.3 387 630.8 386.1 630.3 385.4C630.1 385.2 629.8 385.1 629.6 384.8C629.5 384.6 629.6 384.3 629.6 383.9C630.3 381.6 631.2 379.3 632.3 377C633 375.4 633.8 373.7 633.3 372.1C633.1 371.6 632.9 371 632.8 370.5C632.8 369.5 633.4 368.7 634.3 368.3C635.1 367.9 636 367.5 636.8 367.1C637.1 367 637.3 366.8 637.4 366.6C637.8 365.7 636.4 364.8 636.7 363.8C637 362.7 639.2 363.2 639.5 362C639.6 361.8 639.5 361.5 639.5 361.1C639.6 360.3 640 359.6 640.7 359.2C641.4 358.8 642.1 358.6 642.9 358.6C643.6 358.4 644.3 358.5 644.9 358.9C645.6 359.5 645.2 360.7 644.7 361.6C644.2 362.5 643.6 363.5 644.2 364.4C644.7 365 645.5 365.3 646.3 365.3H648.7C649.4 365.4 650.2 365.1 650.7 364.7C651 364.5 651.1 364.1 651.3 363.7C652 362.2 652.6 360.6 652.8 358.9C652.9 358.5 652.9 357.9 653.2 357.6C653.4 357.3 653.7 357 654 356.7C655.1 355.9 656.3 355.1 657.5 354.3C657.1 351.5 658.5 348.7 660.3 346.6C662.1 344.4 663.6 342.2 665.5 340.2C667.6 337.8 670 335.4 673 334.6C673.6 334.5 674.3 334.3 674.8 334C675.2 333.5 675.5 333 675.6 332.4C676.1 330.6 676.8 328.8 677.3 327C677.6 326 678 325.1 678.5 324.2C679.8 322.3 682.4 321.2 683 318.8C683.1 318.3 683.1 317.7 683.2 317.2C683.5 316.3 683.8 315.5 684.3 314.7C685.4 312.9 686.3 311.1 687.4 309.2C687.1 306.6 686.9 304.2 686.6 301.6C685.7 301.3 684.9 301.2 683.9 301.2C683.8 300.9 683.7 300.4 683.6 300.1C681.7 300.8 679.6 300.6 677.9 299.6C676.2 298.6 674.8 297.2 673.8 295.5C672.5 293.4 671.6 291.1 671 288.7C669.9 288.7 668.9 288.1 668.2 287.2C667.6 286.3 667.1 285.3 666.5 284.4C665.4 283 663.8 282.2 663.1 280.6C662.7 279.7 662.6 278.7 662 277.7C661.4 276.5 660.1 276 659.1 275.1C658 274.2 657.2 273 657.5 271.8C656.4 271.8 655.3 271.8 654.7 270.8C654.5 270.5 654.5 270 654.3 269.7C653.6 268.8 652.4 268.4 651.3 268.8C650.3 269.3 649.2 269.6 648.1 269.9C645.7 270.1 643.9 268 641.6 267C640.2 266.5 638.8 266.3 637.4 266.1C629.4 265.2 621.6 262.7 614.6 258.7C614.4 259 613.9 258.6 613.6 258.3C612.8 257 611.2 256.5 610.1 255.4C609.5 254.7 609.1 253.9 608.7 253C607.8 251.5 606.7 250 605.5 248.7C602.3 244.8 599.3 240.8 596.6 236.6C595.4 235 594.6 233.2 593.9 231.3C593.7 230.7 593.6 230 593.6 229.4L587 235.9C587 236.5 586.8 236.5 586.5 236.6Z" fill="#40B0FF"/>
<path id="OMAN-2" fill-rule="evenodd" clip-rule="evenodd" d="M587.9 195C588.8 195.7 589.3 196.8 589.4 198C589.4 198.4 589.2 200.2 589 202.9C588.9 204.4 588.7 206.2 588.6 206.9C588.8 207 589 207.2 589.3 207.4C589.9 207.9 590.3 208.2 590.5 208.4C590.6 208.3 590.7 208.2 590.8 208.2L591.4 208C591.2 207.7 590.9 207.4 590.6 207.2C592.5 206.6 592.4 203.7 594 202.4C594.6 201.9 595.7 201.4 595.9 200.6C596 200.2 595.9 199.8 595.7 199.5C595.4 198.8 595 198.1 594.4 197.6C594.3 197.5 594.2 197.3 594.2 197.2C594.2 196.9 594.6 196.8 594.8 196.6C595.3 196.3 595.1 195.2 594.5 195.2C594.2 195.2 593.9 195.3 593.7 195.1C593.3 194.9 593.4 194.2 593.4 193.7C593.4 193 593 192.4 592.4 192.1C594.5 191.5 595.4 190.4 595.3 188.1C595.3 187.3 595 186.5 594 186.6C593.8 186.6 593.6 186.8 593.4 187C592.6 187.9 591.7 189 592.1 190.1C592.3 190.6 592.7 191.4 592.3 191.7C591.3 191.6 590.7 190.3 589.8 190.4C589.2 190.6 588.7 191.1 588.5 191.7C588.4 192.3 588.2 193 587.9 193.5C587.5 194.1 586.6 194.4 586.1 194.9C586 195 585.9 195.2 585.8 195.3C586.4 194.9 587.3 194.4 587.9 195Z" fill="#40B0FF"/>
<path id="KUWAIT" fill-rule="evenodd" clip-rule="evenodd" d="M367.2 74.6C366.5 74.3 365.8 74 365.2 73.6C363.7 72.8 360.8 71.4 360 71.4H357.9C355.8 71.4 351.9 71.3 351.3 71.4C351 71.5 346.4 74.1 345.7 74.5C344.9 76 339.1 89 338.9 89.8C338.6 91 333 98.4 330.3 101.4C337.3 102.3 353.3 104.3 353.7 104.4C354.2 104.5 354.2 104.5 358.1 113.5C359.1 115.6 360 118 360.4 118.9H379C378.8 117.6 378.8 116.3 378.6 115C378.3 113.2 377.4 111.4 375.7 110.7C376.1 109.8 376 108.7 375.4 107.9C374.9 107 374 106.5 373.5 105.7C372.9 104.8 372.5 103.8 372.2 102.8C371.5 100.6 370.8 98.4 370.1 96.2C369.8 95.1 369.1 93.7 368 93.6C366.9 93.5 365.6 94.2 365.2 93.3L364 94.5L361.5 93.6C361.2 93.5 360.9 93.4 360.9 93.1C360.8 92.9 361 92.6 361.1 92.3C364 88.6 368.7 86.9 373.3 87.9C373.4 85.5 377 84.9 377.9 82.6C378.4 81.1 377.4 79.5 376.3 78.3C375.1 77.1 373.9 76.1 373.4 74.5C372.5 74.6 371.6 74.7 370.6 74.9C371.4 75.3 371.8 76.2 371.4 77C370.3 77.9 368.6 76.8 368.5 75.5C368.5 75.2 368.5 74.9 368.6 74.6C368.2 74.7 367.8 74.7 367.2 74.6Z" fill="#80CAFF"/>
<g id="Group-11">
<path id="KSA" fill-rule="evenodd" clip-rule="evenodd" d="M359.8 120.3C359.4 120.2 359.4 120.2 356.8 114.1C355.5 111.1 353.7 106.8 353.1 105.7C351 105.4 335.6 103.5 329 102.7C328.7 102.8 328.3 102.9 328 103.1C327.2 103.5 326.4 103.8 325.6 103.9C324.9 103.9 279.9 99.7 279.6 99.7C279.2 99.7 279.1 99.6 246.5 71.7C228.6 56.4 208.3 38.9 207.1 38.3L206.3 37.9C195.5 33.1 190 30.5 189.1 30.1C188.7 29.9 186.1 28.2 181.7 25.2C174.9 20.6 163.7 13 162.5 12.4C160.7 12.1 135.4 6.69999 131 5.79999C129.4 7.29999 127.6 8.79999 125.8 10.1C124.9 10.6 83 23.4 72.1 26.7C74 28.9 79.5 35 85 41.2C98.9 57.1 98.8 57.5 98.7 58C98.6 58.8 97.9 59.6 89.7 63.4C89.5 63.5 89.3 63.6 89.1 63.7C88 66.4 87 69.2 86.1 72.1C85.9 72.7 85.7 73.3 85.5 73.9C85.3 74.4 85.3 74.4 75 76.5C70.7 77.4 65.3 78.4 64.5 78.7C64.2 79.1 62.9 81.5 61.8 83.4C59.7 87.3 58.4 89.6 57.8 90.2C57.7 90.3 47.2 99.5 45.6 100H45.3C43.9 100 38.5 99 19.7 95.4C17.9 95.1 16.3 94.8 15.5 94.5C14.4 98.5 14.9 103 13 106.6C11.4 109.7 11 113.3 11.6 116.7C11.7 117.3 11.8 117.9 11.8 118.5C11.6 119.4 11.1 120.3 10.5 121.1C9.29999 122.8 8.49999 124.8 8.19999 126.9C8.09999 128.2 7.89999 129.4 7.39999 130.5C7.09999 131.1 6.59999 131.7 6.19999 132.3C5.99999 132.9 6.09999 133.9 6.69999 134.1C7.59999 134.1 8.39999 133.5 8.69999 132.7C12.1 132.9 15.4 133.1 18.8 133.2C19.9 133.2 21 133.5 21.9 134.3C22.2 134.8 22.5 135.4 22.5 136C22.9 137.7 23.9 139.3 25.3 140.4C26.2 141.1 27 141.8 27.8 142.6C28.3 143.4 28.7 144.2 29.1 145.1C30.8 149.6 33.4 153.7 36.7 157.1C38 158.4 38.6 160.2 38.3 162C38.2 162.4 38.1 162.8 38.2 163.2C38.3 163.6 38.5 163.9 38.7 164.3C41.8 168.9 44.9 173.5 48.9 177.4C49.5 177.9 49.9 178.5 50.4 179.1C50.8 179.7 51.1 180.4 51.4 181C52.2 183.1 53.1 185.4 53.8 187.5C54.5 189.5 55.4 191.6 57.1 192.9C58.7 194.1 60.9 194.6 61.8 196.4C62.8 198.5 60.8 201.4 62.1 203.4C62.7 204.1 63.4 204.7 64.2 205C65.9 205.9 68.1 206.6 69.5 208C71.1 209.7 72 212 71.9 214.3C71.8 214.8 71.9 215.4 72 215.9C72.2 216.3 72.4 216.6 72.7 216.9C76.7 220.9 79.5 227 77.2 232C76.7 233.1 76 234.1 76.4 235.3C76.7 236 77.2 236.7 77.8 237.2C79.2 238.6 80.5 240.1 81.5 241.8C81.9 242.4 82.1 243 82.2 243.6C82.3 244.1 82.2 244.7 82.3 245.3C82.6 247.8 84.9 249.6 87.5 249.3H87.6C88 249.2 88.4 249.1 88.9 249.2C89.3 249.3 89.7 249.6 90 250C91.7 251.9 94.2 252.9 96.5 254.1C99.8 255.7 102.8 257.8 105.5 260.2C107.5 261.9 109.4 264 110.2 266.5C110.7 268.1 110.8 269.8 111.9 271.1C112.6 271.8 113.3 272.4 114 272.9C115.4 274.2 115.9 276 116.4 277.8C117 279.9 117.8 282.2 118.4 284.3C119.7 288.3 120.9 292.4 123.9 295.3C124.7 298.3 125.2 301.5 126.4 304.3C127.6 307 126.5 310.1 125.3 312.9C124.1 315.6 123 318.7 123.9 321.5C125.6 321.6 126.3 323.6 126.7 325.4C127.1 327.7 128 330 129.4 331.9C129.7 332.3 130 332.7 130 333.1C130.2 334.5 128.4 335.1 127.6 336.2C126.5 337.5 127 339.4 127.8 340.8C128.6 342.2 130 343.3 131 344.7C131.6 345.7 132.1 346.8 132.8 347.8C133.9 349.4 135.6 350.5 136.9 351.9C140.5 355.7 141.9 361.1 145.7 364.5C147.6 366.2 150 367.3 152.5 367.6C153.1 367.6 153.8 367.8 154.3 368.1C154.5 368.4 154.7 368.7 154.8 369.1C155.7 370.7 157.2 371.9 158.9 372.4C161.8 373.4 164.3 375.3 166 377.8C167.1 379.3 167.9 381.2 169.7 381.6C170.4 381.6 171.1 381.7 171.8 381.9C173.5 382.9 172.3 385.9 173.7 387.2C174.2 387.5 174.7 387.8 175.2 388.1C176.7 389 177.1 390.8 177.6 392.5C178.3 395.1 179.2 397.6 180 400.2C180.2 401 180.5 401.7 180.7 402.4C181.3 404.3 182 406.1 183 407.9C183.3 408.4 183.6 408.9 183.8 409.5C183.9 410 184 410.6 184 411.1C184.2 412.8 185 414.4 186.3 415.5C187.2 416.1 187.9 416.8 188.6 417.5C190.4 419.6 190 423.1 191.9 425.1C192.4 425.5 192.8 425.9 193.2 426.4C193.9 427.4 193.9 428.5 194.3 429.7C194.7 430.9 195.3 432.3 196.3 432.5C196.9 434.2 198 435.8 199.4 437C199.8 437.3 200.4 437.5 200.9 437.9C202.8 439.1 204.1 441 205.9 442.5C207.3 443.7 209 444.5 210.5 445.6C212.1 446.6 213.2 448.2 213.7 450C213.8 451.2 213.8 452.4 213.7 453.6C213.6 454.9 214.3 456 215.4 456.6C215.8 456.8 216.4 456.8 216.7 457.1C217.3 457.6 217.3 458.6 217.5 459.5C217.9 460.4 218.4 461.2 219.1 461.9C219.6 462.7 220.5 464 220.1 464.9C220.7 466.5 223.1 466.6 224 468C224.9 469.4 224.1 471.3 224.6 472.9C224.9 473.9 225.7 474.7 226 475.7C226.2 476.3 226.2 477 226.1 477.6C228.1 477.6 230 477.7 230.7 477.6C230.7 477.3 230.8 477.1 230.9 476.8C231.2 475.5 231.4 474.3 232.4 474.2H234C234.4 474.2 235.2 474.3 235.6 474.3C235.6 474 235.5 473.5 235.5 473.2C235.3 471.4 235.1 470 236.1 469.9C236.8 469.9 237.6 470.1 238.2 470.4C238.3 470.4 238.5 470.5 238.6 470.5C238.8 469.8 239 469.2 239 468.5C238.7 468.1 238.5 467.8 238.2 467.4C236.4 464.9 235.5 463.8 235.8 462.9C236.1 461.9 236.5 460.4 236.6 460.3C236.7 460.1 236.9 459.9 237.1 459.9L238.1 459.7L236.2 456.5C236 456.2 236.1 455.7 236.4 455.5L240.4 452.6C238.5 451.2 238.3 450.8 238.3 450.6C238.1 449.8 237.8 447.7 239.3 447.2C239.6 447.1 240 446.9 240.6 446.7C242 446 243.5 445.5 245.1 445.2C245.7 445.2 246.8 446 249.6 448.4C250.4 449.2 251.5 450.1 251.7 450.2C252.5 450.3 253.4 450.4 254.2 450.4C255 450.4 255.9 450.5 256.7 450.6C257.2 450.7 257.6 450.8 258.1 451H258.2C258.3 450.7 258.5 450.5 258.7 450.2C259.2 449.3 259.7 448.7 260.3 448.8C260.9 448.8 266.5 448.7 272.4 448.6C289.8 448.2 292.7 448.2 293 448.3C293.7 448.6 294.3 449 294.9 449.5C295.7 450.2 296.5 450.7 297.4 451.1C298.8 451.3 322.3 454 323.5 453.9C324.1 453.8 327 453.5 329.5 453C333 452.5 334 452.4 334.2 452.4C334.7 452.4 334.7 452.4 337.2 456.4C338.4 458.4 339.6 460.3 341 462.2C341.5 462.2 342.7 462.1 343.8 462C344.7 462 345.5 461.9 346.3 461.8C348.5 460.4 350.7 458.8 352.7 457.1C353.6 455.4 354.4 453.7 355 452C355.5 450.7 356 449.6 356.2 449.2C356.6 448.2 362 441.3 368.6 432.9C370.7 430.1 372.6 427.8 372.7 427.5C373.4 426.4 397.5 414.7 397.7 414.6C398.1 414.4 401.2 414.1 413.2 412.8C423 411.7 435.1 410.6 439.4 409.8C446.9 408.6 473.6 403.8 475.8 403.4C502.3 394 552.3 376 555.8 374.5C557.3 371.1 573.4 320.5 574.3 316.6C573.7 315.1 567.1 304.3 562.6 296.9C561 298.7 560.6 298.7 560.4 298.7C560 298.7 492 289.6 490.8 289.3C489.4 288.9 464.4 254.3 464.3 253.9C464 252.5 463.8 251.1 463.8 249.6C463.5 249.2 463.4 248.5 463 248.1C462.2 247.1 460.7 247.5 459.5 247.7C458.2 247.9 456.6 247.8 456.3 246.5C456 245.2 457.6 244.3 458.7 243.6C459.7 243.1 460.6 242.2 461 241.1C461.4 240.2 461.4 239.1 461 238.2C458 242.4 457.6 242.5 457.4 242.6C457.3 242.6 457.2 242.7 457.1 242.7C456.4 243.1 455.6 243.2 454.8 243.1C454.2 243.1 453.6 243.2 453.1 243.5C452.6 243.7 452.1 243.9 451.6 243.9H451.3C449.5 243.1 447.9 242 446.5 240.6C446.2 240.2 444.7 237.3 443.5 235.1C442.7 235 442 234.5 441.6 233.7C441.3 232.9 441 232.1 440.9 231.2C440.1 228.1 437.5 225.7 436.7 222.7C435.9 219.7 436.6 216.1 434.4 213.9C433.4 212.9 432 212.5 430.9 211.7C430.2 211.1 429.6 210.3 429.2 209.5C428.3 207.5 427.8 205.4 427.9 203.2C426.8 203.2 425.8 202.3 425.7 201.2C425.8 200.6 425.7 200 425.6 199.5C425.4 199.1 425.1 198.8 424.8 198.5C422.9 196.7 422.4 193.8 423.5 191.4C424.7 193.3 427 194.4 429.2 194.1H428.7C428 194 427.1 193.9 426.9 193.1C426.8 192.9 426.9 192.7 426.9 192.5C427.1 190 427.4 187.5 427.6 185C424.6 183.2 422.6 180.1 422.2 176.6C423 176.4 423.8 176.2 424.6 176C424.2 174 422.9 172.4 421 171.6C418.7 170.8 416.5 169.8 414.5 168.5C414.1 168.2 413.7 168 413.4 167.5C413.1 167 413 166.3 412.7 165.8C412.4 165.1 411.8 164.5 411.1 164.2C410.9 164.1 410.7 164 410.6 163.9C410.4 163.6 410.6 163 410.7 162.6C411 161.4 410.1 160.4 409.4 159.4C408.9 158.5 408.6 157.5 408.7 156.5C408.5 156.3 408.2 156.6 408.1 156.8C408.1 157.1 408.2 157.4 408.4 157.7C409.1 159.1 408.9 160.8 407.8 162C407.5 162.3 407.2 162.6 407.3 163.1C407.4 163.4 407.7 163.4 408 163.5C408.3 163.6 408.5 163.9 408.4 164.1C407.4 164.2 406.5 163.6 406.3 162.6C406.3 162.4 406.3 162.2 406.2 162.1C405.9 161.7 405.4 161.9 404.9 161.9C404.1 161.8 403.7 160.7 403.6 159.8C403.5 158.9 403.4 157.9 402.5 157.4C402.2 157.3 401.9 157.3 401.5 157.2C401 157 400.6 156.6 400.3 156.1C399.6 155.1 399 154.1 398.6 153C400 153 401.3 152.7 402.6 152.2C402.5 151.1 401.3 150.5 400.3 150.4C399.2 150.4 398.1 150.3 397.1 149.9C396.6 149.6 396.1 148.9 395.5 148.6C394.5 148 393.6 148.6 392.6 148.9C392.4 148.3 392.2 147.7 392.2 147.1C392.1 147.9 390.9 147.9 390.5 147.2C390.2 146.6 390.1 145.8 390.3 145.2C390.6 143.5 390.9 141.8 391.1 140.1C390.2 139.9 389.4 139.4 388.8 138.7C388.3 137.9 388.5 136.6 389.3 136.3C389.2 135.9 389 135.3 388.9 134.9C387.3 135.3 385.7 134.7 384.8 133.4C383.9 132.1 383.8 130.3 384.7 128.9C383.3 128.8 382.1 127.7 381.8 126.3C381.5 125 382.1 123.6 383.2 122.8C381.4 122.9 380 121.3 379.5 119.6V119.5H366.2C360 120.4 359.9 120.3 359.8 120.3Z" fill="#007ED7"/>
</g>
<path id="QATAR" fill-rule="evenodd" clip-rule="evenodd" d="M451.5 243.4C451.6 243.4 452 243.2 452.3 243.1C453 242.7 453.9 242.5 454.7 242.6C455.2 242.7 455.7 242.6 456.2 242.3C456.3 242.2 456.5 242.2 456.6 242.1C457.8 240.7 458.9 239.3 459.9 237.8C459.9 237.5 459.9 237.2 460.1 236.9C460.8 235.3 461.8 233.8 462.6 232.3C464.5 228.6 465.4 224.5 465.1 220.4C465.1 220 465 219.5 464.6 219.4C464.4 219.3 464.1 219.4 463.9 219.4C463.2 219.4 462.8 218.5 462.6 217.8L461.4 212.3C461.2 211.6 461.2 210.8 461.4 210.1C461.7 209.5 462.6 208.9 463.2 209.2C463.1 207.7 463 206.3 462.9 204.8C463.2 204.7 463.6 204.6 464 204.5C464.1 202.5 463.9 199.9 462 199.2C461.5 199 461 198.9 460.5 198.9C458.5 198.1 458.9 194.9 457.2 193.5C456.2 192.8 454.9 192.7 453.8 193.1C452.7 193.6 451.8 194.2 450.9 195C449.8 195.8 448.9 196.8 448.1 197.9C447.3 199 447.1 200.5 447.6 201.8C447.7 202.1 447.9 202.6 447.7 202.9C447.6 203.1 447.4 203.2 447.2 203.3C445.5 204.4 445.5 206.9 445.7 209C444.7 208.8 443.8 209.2 443.2 210C443.6 210.9 443.7 211.9 443.5 212.9C443.2 213 442.9 213 442.7 213.1C442.3 216.6 442.3 220.2 442.8 223.7C442.9 224.3 443 224.8 442.9 225.4C442.8 226.3 442.4 227 442.7 227.8C442.9 228.1 443.1 228.5 443.3 228.8C444.2 229.9 444.8 231.2 445 232.7C445.2 233.6 445 234.6 444.5 235.4C445.7 237.8 447 240.3 447.3 240.7C448.6 241.7 450 242.7 451.5 243.4Z" fill="#0051E8"/>
<path id="UAE" fill-rule="evenodd" clip-rule="evenodd" d="M491.2 288.5C494.4 289.1 556.9 297.5 560.2 297.8C560.9 297.2 561.5 296.5 562 295.8V284.7C562 284.5 562 284.4 562.1 284.3C565.6 278.6 570.9 269.9 571.2 269.3C571.3 268.7 570.2 263.9 569.2 259.8C569.1 259.5 569.3 259.2 569.5 259C571.7 257.7 575.5 255.6 576.5 255.6C578 255.6 582.2 255.5 583.6 255.4C583.5 254.1 583.1 252.8 582.5 251.5C581.7 251.4 578.5 251.1 577.3 251C577 251 576.8 250.8 576.7 250.6C576.6 250.3 576.7 250.1 576.8 249.8L578.7 247.8C578.1 245.1 577 241 577 240.5C577 240 577.4 239.4 578.3 238.6C578.4 238.4 578.6 238.3 578.7 238.1C578.6 237.2 578.3 233.2 578 230.5C578 230.2 578.1 230 578.3 229.9L582.5 227.4C582.7 227.3 583 227.3 583.2 227.4L585.7 228.9C585.9 229 586 229.2 586 229.4C586.4 232 586.1 232.3 585.9 232.5C585.7 232.7 585.4 232.8 585.2 232.7H584.4L586.5 235.1L593.4 228.1V225.5C593.5 222.8 593.5 220.1 593.6 217.5C593.8 215.7 593.7 213.9 593.3 212.1C593.1 211.2 592.7 210.2 592.2 209.4L591.5 209.7L591.2 210.7C591.1 211 590.9 211.2 590.6 211.1C590.3 211.1 590 211 590 210.7C589.9 210.3 589.6 209.9 589.4 209.5C589.3 209.4 588.8 209.1 588.4 208.7C587.4 208.1 587.2 207.8 587.1 207.4C587.1 207.2 587 207.2 587.5 202.9C587.7 201 587.9 198.5 587.9 198.1C587.8 197.4 587.5 196.8 587.1 196.3C586.7 196.5 586.3 196.8 586 197.2C585.7 197.6 585.3 197.8 584.8 197.8C584.7 198.2 584.7 198.7 584.6 199.1C583.8 202 581.8 204.5 579.2 206C578.5 206.4 577.8 206.8 577.2 207.3C576.7 207.7 576.2 208.4 575.7 208.9C574.7 210.1 573.6 211.1 572.2 211.9C572.1 211.6 571.7 211.3 571.4 211.4C571.3 211.4 571.2 211.5 571.1 211.5C570.7 211.7 570.6 212.1 570.4 212.6C570.3 213 570.1 213.4 569.7 213.7C569.5 213.8 569.3 213.9 569.2 214C568.7 214.3 568.6 215 568.4 215.5C568.1 216.5 567.7 217.4 567.2 218.4C565.3 222.5 562 225.9 558 228C556.2 229 554.7 230.5 552.9 231.3C551.1 232.1 549 232.4 547.7 233.9C547.1 234.4 546.9 235.3 547.3 236C547.4 236.2 547.6 236.4 547.7 236.6C547.8 237.2 547 237.6 546.3 237.6C546.1 238.4 546 239.1 545.8 239.8C546.1 240 546.4 240.1 546.8 240.3C546.6 241.1 546.2 241.8 545.6 242.4C544.6 241.6 543.2 241.4 542 241.6C540.8 242 539.7 242.9 539.2 244.1C540 244.4 540.8 244.8 541.5 245.3C542.2 245.8 542.6 246.7 542.6 247.5C542.5 248.5 541.8 249.3 540.8 249.6C539.8 249.9 538.8 250.1 537.8 250V248.3C537.8 248.1 537.8 247.9 537.6 247.8H537.3L533.9 248.7C533.5 248.8 533.1 249 532.8 249.2C532.1 250.1 533.3 251.4 533.1 252.5C532.3 252.7 531.2 251.7 530.6 252.4C530.3 252.7 530.4 253.4 530.3 253.8C530.1 254.4 529.5 254.8 528.9 255C528.3 255.1 527.7 255.2 527.1 255.2C524 255.4 520.3 258.6 518 256.6C517.1 255.6 515.8 254.9 514.5 254.6C513.8 254.5 513.1 254.5 512.4 254.6C511.2 254.7 510.2 254.7 509 254.7C508.6 254.7 508.2 254.7 507.8 254.5C507.3 254.2 507.2 253.3 506.6 253.1C506.2 252.9 505.7 253.1 505.5 253.6C505.5 253.7 505.4 253.8 505.4 254C504.9 254 504.3 254 503.8 254.2C503.7 254.2 503.6 254.3 503.5 254.2C503.2 254.1 503.2 253.8 503.3 253.4C502.2 253.2 501 253.1 499.9 253.2C499.8 253.6 499.9 253.9 500 254.3C498.7 254.3 497.5 254.2 496.3 253.9C495.9 253.8 495.5 253.7 495.1 253.5C494.9 253.4 494.8 253.3 494.6 253.2C494.3 253.1 494.1 253.2 493.8 253.1C492.7 253 492.3 251.8 491.6 251.2C490.1 253.2 488.2 254.9 486.2 256.3C484.8 257.5 483.1 258.5 481.4 259.2C479.7 259.9 477.7 259.9 476 259C475.4 258.7 474.7 258.1 474.1 258.5C473.9 258.6 473.6 258.8 473.5 259C472.3 259.7 470.8 259.4 470.1 258.2C470.1 258.2 470.1 258.1 470 258.1C469.3 256.9 469.1 255.5 469.3 254.1C469.5 252.8 469.5 251.4 469.4 250C468.5 249.6 467.5 249.8 466.9 250.4C466.7 250.6 466.6 250.8 466.4 250.9C466 251 465.6 250.7 465.6 250.2V250.1C465.6 249.7 465.6 249.2 465.7 248.8C465.7 247.7 465.1 246.7 464.1 246.3C464.3 247.3 464.6 248.3 464.8 249.3C464.9 249.5 464.9 249.7 464.8 249.9C464.8 250 464.8 250 464.7 250C464.8 251.2 464.9 252.3 465.1 253.4C467 256.5 489.2 286.7 491.2 288.5Z" fill="#0064AB"/>
</g>
<path id="BAHRAIN" fill-rule="evenodd" clip-rule="evenodd" d="M439.599 194.477L437.5 187.053L438.398 185.053L443.5 186.053L445.5 185.053C446 184.053 446 182.5 444.5 181L435.371 182.553L432.919 186.053L432.919 191.053L432.919 195.102L435.371 202.476L437.5 202.476L438.398 200.462L439.599 194.477Z" fill="#08205C"/>
</g>
</g>
</svg>
