<?xml version="1.0" encoding="utf-8"?>
<!-- Generator: Adobe Illustrator 25.2.3, SVG Export Plug-In . SVG Version: 6.00 Build 0)  -->
<svg version="1.1" id="Layer_1" xmlns="http://www.w3.org/2000/svg" xmlns:xlink="http://www.w3.org/1999/xlink" x="0px" y="0px"
	 viewBox="0 0 147 29" style="enable-background:new 0 0 147 29;" xml:space="preserve">
<style type="text/css">
	.st0{fill:#FFFFFF;}
</style>
<desc>Created with Sketch.</desc>
<g id="Page-1">
	<g id="shipa-delivery-logo" transform="translate(-15.000000, -8.000000)">
		<polygon id="Shape" class="st0" points="41.8,21.7 41.8,15.6 44.9,15.6 44.9,31.3 41.8,31.3 41.8,24.3 35.3,24.3 35.3,31.3 
			32.2,31.3 32.2,15.6 35.3,15.6 35.3,21.7 		"/>
		<polygon id="Shape_1_" class="st0" points="55.7,31.3 52.6,31.3 52.6,15.6 55.7,15.6 		"/>
		<path id="Shape_2_" class="st0" d="M66.6,31.3h-3V15.6h4.5c2,0,3.1,0.3,4.1,1.2c1,1,1.6,2.3,1.6,3.7c0,3.2-1.9,4.9-5.2,4.9h-2
			V31.3z M67.8,22.8c1.9,0,2.8-0.8,2.8-2.3c0-1.5-1-2.3-3-2.3h-1.1v4.6L67.8,22.8z"/>
		<path id="Shape_3_" class="st0" d="M81.2,28l-1.4,3.3h-3.2l6.7-16h2.3l8.1,19.9l-2.5,1.8L87.6,28H81.2z M84.4,19.9l-2.3,5.6h4.4
			L84.4,19.9z"/>
		<path id="Shape_4_" class="st0" d="M21.6,21.6c-1.8-0.7-2.4-1.1-2.4-2c0-1,1-1.7,2.3-1.7c1.1,0,2.1,0.4,2.8,1.2l0.9-2.3
			c-1.2-1-2.7-1.5-4.3-1.5c-2.8,0-4.8,1.9-4.8,4.5c0,2.2,1,3.3,3.8,4.3c0.7,0.2,1.4,0.5,2.1,0.9c0.6,0.3,0.9,1,0.9,1.6
			c0,1.3-1,2.2-2.4,2.2c-1.7,0-3.2-1.2-3.9-2.6L15.5,29c1.4,1.8,3,2.6,5.1,2.6c3.1,0,5.4-2.1,5.4-5.1C26,24,25,22.9,21.6,21.6z"/>
		<path id="Shape_5_" class="st0" d="M105.2,24.4h2c2.2,0,3.6,1.4,3.6,3.4c0,1-0.5,2-1.2,2.6c-0.7,0.6-1.6,0.8-2.4,0.8h-1.9V24.4z
			 M106.9,30.1c0.9,0,1.4-0.2,1.8-0.5c0.5-0.4,0.7-1.1,0.7-1.7c0-0.6-0.3-1.3-0.7-1.7c-0.4-0.4-1-0.6-1.8-0.6h-0.4v4.5H106.9z"/>
		<polygon id="Shape_6_" class="st0" points="115.4,25.6 115.4,27.1 117.7,27.1 117.7,28.3 115.4,28.3 115.4,30.1 117.8,30.1 
			117.8,31.3 114.1,31.3 114.1,24.4 117.8,24.4 117.8,25.6 		"/>
		<polygon id="Shape_7_" class="st0" points="122.6,30.1 124.7,30.1 124.7,31.3 121.3,31.3 121.3,24.4 122.6,24.4 		"/>
		<polygon id="Shape_8_" class="st0" points="128.9,31.3 127.6,31.3 127.6,24.4 128.9,24.4 		"/>
		<polygon id="Shape_9_" class="st0" points="135,29 136.8,24.4 138.2,24.4 135.3,31.5 134.6,31.5 131.7,24.4 133.1,24.4 		"/>
		<polygon id="Shape_10_" class="st0" points="142.4,25.6 142.4,27.1 144.8,27.1 144.8,28.3 142.4,28.3 142.4,30.1 144.9,30.1 
			144.9,31.3 141.1,31.3 141.1,24.4 144.9,24.4 144.9,25.6 		"/>
		<path id="Shape_11_" class="st0" d="M153.3,31.3h-1.6l-1.8-2.8h-0.2v2.8h-1.3v-6.9h2c1.5,0,2.4,0.7,2.4,2c0.1,1-0.6,1.8-1.6,1.9
			L153.3,31.3z M150,27.6c0.8,0,1.3-0.4,1.3-1.1c0-0.7-0.5-1-1.3-1h-0.4v2.1H150z"/>
		<polygon id="Shape_12_" class="st0" points="155.1,24.4 156.6,24.4 158.1,26.8 159.5,24.4 161.1,24.4 158.8,28.1 158.8,31.3 
			157.4,31.3 157.4,28.1 		"/>
		<polygon id="Shape_13_" class="st0" points="103,9.2 98,21 91.2,37.1 94.9,35.5 106.3,8.4 		"/>
	</g>
</g>
</svg>
