<svg xmlns="http://www.w3.org/2000/svg" width="202.665" height="63.07" viewBox="0 0 202.665 63.07">
    <defs>
        <style>
            .cls-2{fill:#00f}
        </style>
    </defs>
    <g id="shipa_delivery_logo_spaced" transform="translate(-20 -1.539)">
        <path id="Rectangle_123" fill="rgba(255,255,255,0)" d="M0 0H202.665V63.07H0z" transform="translate(20 1.539)"/>
        <g id="Group_9647" transform="translate(20 12.538)">
            <g id="Group_724" transform="translate(0 9.432)">
                <path id="Path_697" d="M101.466 50.839v-8.246h4.155v21.319h-4.155v-9.461h-9.014v9.461H88.3V42.593h4.155v8.246z" transform="translate(-65.421 -42.146)"/>
                <path id="Path_698" d="M148.395 63.912h-4.155V42.593h4.155z" transform="translate(-93.364 -42.146)"/>
                <path id="Path_699" d="M178.217 63.912h-4.155V42.593h6.232c2.781 0 4.283.447 5.625 1.63a6.776 6.776 0 0 1 2.174 5.05c0 4.315-2.589 6.744-7.191 6.744h-2.685zm1.694-11.506c2.621 0 3.9-1.023 3.9-3.133S182.5 46.2 179.655 46.2h-1.438v6.2z" transform="translate(-108.26 -42.146)"/>
                <path id="Path_700" d="M216.174 58.959l-1.917 4.507h-4.411l9.237-21.766h3.132l11.147 27.133-3.435 2.505-5.027-12.379zm4.443-11.027l-3.1 7.671h6.072z" transform="translate(-126.133 -41.699)"/>
                <path id="Path_701" d="M50.861 50.425c-2.493-.927-3.3-1.517-3.3-2.667 0-1.342 1.383-2.383 3.173-2.383a4.981 4.981 0 0 1 3.866 1.644l1.3-3.065a9.3 9.3 0 0 0-5.9-2.063c-3.771 0-6.648 2.621-6.648 6.1 0 2.94 1.342 4.443 5.242 5.849a16.674 16.674 0 0 1 2.876 1.215 2.552 2.552 0 0 1 1.247 2.205 3.038 3.038 0 0 1-3.228 3 6.431 6.431 0 0 1-5.316-3.507l-1.577 3.712a8.164 8.164 0 0 0 7.054 3.6c4.314 0 7.351-2.876 7.351-7-.001-3.38-1.41-4.914-6.14-6.64z" transform="translate(-42.593 -41.795)"/>
            </g>
            <g id="Group_725" transform="translate(122.951 21.851)">
                <path id="Path_702" d="M288.244 66.511h2.677c2.957 0 5.017 1.92 5.017 4.68a4.673 4.673 0 0 1-1.7 3.588 4.807 4.807 0 0 1-3.335 1.08h-2.663zm2.313 7.764a3.451 3.451 0 0 0 2.494-.743 3.2 3.2 0 0 0 1.01-2.354 3.14 3.14 0 0 0-1.01-2.326 3.372 3.372 0 0 0-2.494-.757h-.49v6.18z" class="cls-2" transform="translate(-288.244 -66.511)"/>
                <path id="Path_703" d="M314.331 68.095v2.074h3.223v1.584h-3.223v2.523h3.349v1.584h-5.171v-9.349h5.171v1.584z" class="cls-2" transform="translate(-300.364 -66.511)"/>
                <path id="Path_704" d="M334.113 74.275h2.873v1.584h-4.695v-9.348h1.822z" class="cls-2" transform="translate(-310.245 -66.511)"/>
                <path id="Path_705" d="M351.375 75.859h-1.822v-9.348h1.822z" class="cls-2" transform="translate(-318.867 -66.511)"/>
                <path id="Path_706" d="M365.369 72.789l2.523-6.278h1.976l-4.037 9.589h-.981l-3.966-9.585h1.99z" class="cls-2" transform="translate(-324.527 -66.511)"/>
                <path id="Path_707" d="M388.416 68.095v2.074h3.223v1.584h-3.223v2.523h3.349v1.584h-5.171v-9.349h5.171v1.584z" class="cls-2" transform="translate(-337.368 -66.511)"/>
                <path id="Path_708" d="M413.2 75.859h-2.242l-2.522-3.759h-.236v3.756h-1.822v-9.345h2.705c2.1 0 3.307 1.009 3.307 2.761a2.487 2.487 0 0 1-2.13 2.649zm-4.471-5.045c1.164 0 1.78-.5 1.78-1.443 0-.911-.617-1.388-1.752-1.388h-.557v2.831z" class="cls-2" transform="translate(-347.249 -66.511)"/>
                <path id="Path_709" d="M424.88 66.511h2.158l2.018 3.251 1.976-3.251h2.168l-3.279 5.059v4.289H428.1V71.57z" class="cls-2" transform="translate(-356.492 -66.511)"/>
            </g>
            <path id="Path_710" d="M266.121 23.9l-6.871 16.176-9.283 21.849 5.012-2.073 15.719-37z" class="cls-2" transform="translate(-146.174 -22.855)"/>
        </g>
    </g>
</svg>
